<?xml version="1.0" encoding="UTF-8" standalone="no"?>
<svg
   xmlns:dc="http://purl.org/dc/elements/1.1/"
   xmlns:cc="http://creativecommons.org/ns#"
   xmlns:rdf="http://www.w3.org/1999/02/22-rdf-syntax-ns#"
   xmlns:svg="http://www.w3.org/2000/svg"
   xmlns="http://www.w3.org/2000/svg"
   xmlns:sodipodi="http://sodipodi.sourceforge.net/DTD/sodipodi-0.dtd"
   xmlns:inkscape="http://www.inkscape.org/namespaces/inkscape"
   version="1.1"
   id="svg2"
   xml:space="preserve"
   width="1333.3333"
   height="800"
   viewBox="0 0 1333.3333 800"
   sodipodi:docname="32207.eps"><metadata
     id="metadata8"><rdf:RDF><cc:Work
         rdf:about=""><dc:format>image/svg+xml</dc:format><dc:type
           rdf:resource="http://purl.org/dc/dcmitype/StillImage" /></cc:Work></rdf:RDF></metadata><defs
     id="defs6" /><sodipodi:namedview
     pagecolor="#ffffff"
     bordercolor="#666666"
     borderopacity="1"
     objecttolerance="10"
     gridtolerance="10"
     guidetolerance="10"
     inkscape:pageopacity="0"
     inkscape:pageshadow="2"
     inkscape:window-width="640"
     inkscape:window-height="480"
     id="namedview4" /><g
     id="g10"
     inkscape:groupmode="layer"
     inkscape:label="ink_ext_XXXXXX"
     transform="matrix(1.3333333,0,0,-1.3333333,0,800)"><g
       id="g12"
       transform="scale(0.1)"><path
         d="M 0,0 H 10000 V 6000 H 0 Z"
         style="fill:#99deed;fill-opacity:1;fill-rule:nonzero;stroke:none"
         id="path14" /><path
         d="m 5944.87,3594.06 c -10.54,0 -21.12,0.11 -31.67,0.32 -190.46,3.92 -375.02,44 -557.38,83.81 -336.97,73.56 -674.58,147.24 -1019.85,195.1 -195.09,27.04 -392.16,45.76 -589.34,63.23 -686.19,60.78 -1374.95,106.39 -2063.99,149.09 -449.1,27.82 -899.234,54.43 -1350.472,54.43 -97.332,0 -194.766,-1.24 -292.1953,-3.97 C 26.668,4135.69 13.3359,4135.27 0,4134.84 v 444.75 c 126.172,-2.8 252.34,-5.6 378.512,-8.4 200.008,-4.44 401.433,-9.01 595.738,-42.94 182.09,-31.79 355.39,-88.96 539.15,-115.03 294.97,-41.84 605.96,-2.04 897.39,-55.7 206.51,-38.02 392.77,-121.09 589.13,-182.56 218.22,-68.32 450.62,-110.18 686.71,-123.7 83.98,-4.8 168.7,-6.09 253.67,-6.09 49.19,0 98.48,0.43 147.72,0.86 49.25,0.44 98.44,0.87 147.54,0.87 210.88,0 419.44,-7.98 617.52,-58.21 213.9,-54.25 402.68,-155.1 613.46,-215.99 192.89,-55.72 393.93,-76.05 599.06,-76.05 379.78,0 773.51,69.71 1155.05,113.6 313.2,36.04 629.05,54.11 944.27,54.11 138.68,0 277.27,-3.5 415.41,-10.5 -30.4,0.27 -60.79,0.4 -91.2,0.4 -627.78,0 -1257.68,-57.42 -1872.86,-170.81 -221.92,-40.91 -445.4,-89.39 -671.4,-89.39"
         style="fill:#bde9f1;fill-opacity:1;fill-rule:nonzero;stroke:none"
         id="path16" /><path
         d="m 10000,4811.03 c -417.92,325.18 -670.7,412.51 -905.68,412.51 -136.39,0 -266.81,-29.44 -419.95,-58.87 -153.18,-29.44 -329.09,-58.87 -556.64,-58.87 -48.83,0 -100.09,1.36 -153.96,4.36 -1584.74,88.38 -3169.5,176.76 -4754.25,265.14 128.14,24.08 257.42,32.99 387.23,32.99 220.75,0 442.99,-25.79 663.54,-46.68 857.59,-81.24 1718.69,-87.45 2578.76,-93.61 60.56,-0.44 121.28,-0.84 182.11,-0.84 424.81,0 853.59,19.47 1250.02,182.51 31.73,13.05 70.04,45.72 53.94,79.51 -23.03,16.35 -46.06,32.7 -69.08,49.05 262.09,16.5 524.56,24.73 787.17,24.73 319.06,0 638.28,-12.16 956.79,-36.42 v -755.51"
         style="fill:#bde9f1;fill-opacity:1;fill-rule:nonzero;stroke:none"
         id="path18" /><path
         d="m 10000,450 h -463.49 c -546.25,1052.33 -1214.2,1695.09 -1214.2,1695.09 0,0 -293.32,-67.46 -638.56,-223.39 -58.49,182.02 1.77,435.14 105.04,612.56 271.99,467.26 729.34,797.1 1225.54,883.86 39.59,6.92 80.9,11.88 121.66,11.88 73.34,0 144.89,-16.07 201.32,-65.72 76.25,-67.08 105.82,-179.32 122.14,-285.57 44.64,-290.53 21,-593.41 -67.31,-871.4 12.03,7.53 30.79,10.62 49.87,10.62 13.47,0 27.1,-1.54 38.63,-4.13 13.2,-2.97 26.07,-4.37 38.64,-4.37 140.32,0.02 243.76,174.33 348.13,293.87 40.18,46.03 84.81,84.67 132.59,116.87 L 10000,450 M 284.715,450 H 0 v 2626.37 c 153.75,37.08 311.082,57.18 467.82,57.18 209.176,0 417.25,-35.83 613.91,-114.93 204.82,-82.37 395.21,-215.19 549.42,-385.44 L 829.156,1516.28 705.828,1223.65 c -69.09,45.02 -141.418,76.18 -209.289,76.18 -14.004,0 -27.836,-1.33 -41.391,-4.14 -0.664,-0.13 -1.328,-0.29 -1.996,-0.46 C 315.719,1261.38 98.1914,653.332 98.1914,653.332 l 328.1446,83.59 c -0.004,0 -0.004,0 -0.004,0 l 47.59,12.129 L 284.715,450 m 6416.405,810.24 -58.92,94.95 -292.54,224.1 -404.17,788.05 c 76.95,-87.86 147.26,-183.14 209.54,-285.31 94.16,98.76 223.95,153.28 353.44,153.28 41.27,0 82.52,-5.54 122.56,-16.95 112.15,-31.96 210.43,-104.87 311.21,-168.05 164.6,-103.19 341.29,-182.59 524.19,-236.13 -3.54,-1.92 -7.08,-3.84 -10.62,-5.78 -0.03,-0.02 -0.03,-0.02 -0.07,-0.04 -1.22,-0.67 -2.44,-1.34 -3.66,-2.01 -0.04,-0.02 -0.06,-0.03 -0.1,-0.05 -1.22,-0.67 -2.43,-1.34 -3.66,-2.01 -0.04,-0.03 -0.02,-0.02 -0.06,-0.04 -0.28,-0.15 -0.6,-0.33 -0.88,-0.48 l -0.03,-0.02 c -0.6,-0.33 -1.25,-0.69 -1.84,-1.02 -0.02,-0.01 -0.06,-0.03 -0.08,-0.04 -0.25,-0.14 -0.5,-0.28 -0.75,-0.42 -0.1,-0.05 -0.22,-0.12 -0.32,-0.17 -0.16,-0.09 -0.39,-0.22 -0.55,-0.3 -0.07,-0.05 -0.19,-0.11 -0.27,-0.15 -0.28,-0.16 -0.51,-0.28 -0.79,-0.44 -0.02,-0.01 -0.06,-0.03 -0.08,-0.04 -0.28,-0.16 -0.62,-0.35 -0.91,-0.51 -0.02,-0.01 -0.03,-0.02 -0.05,-0.03 -0.25,-0.14 -0.53,-0.29 -0.78,-0.43 -0.08,-0.05 -0.16,-0.09 -0.23,-0.13 -0.25,-0.14 -0.54,-0.3 -0.79,-0.44 l -0.04,-0.02 c -0.31,-0.17 -0.59,-0.32 -0.9,-0.5 l -0.03,-0.01 c -0.28,-0.16 -0.57,-0.32 -0.85,-0.48 -0.1,-0.05 -0.22,-0.12 -0.32,-0.17 -0.18,-0.11 -0.36,-0.21 -0.55,-0.31 -0.12,-0.07 -0.25,-0.14 -0.37,-0.21 -0.13,-0.07 -0.34,-0.18 -0.46,-0.25 -0.14,-0.08 -0.28,-0.16 -0.42,-0.23 -0.12,-0.07 -0.22,-0.13 -0.34,-0.2 -0.9,-0.5 -1.81,-1.01 -2.7,-1.51 -0.07,-0.03 -0.08,-0.04 -0.14,-0.07 -1.48,-0.83 -2.91,-1.63 -4.39,-2.46 -0.06,-0.03 -0.1,-0.05 -0.16,-0.09 -0.93,-0.52 -1.86,-1.04 -2.8,-1.57 -0.06,-0.03 -0.14,-0.08 -0.2,-0.11 -0.18,-0.1 -0.39,-0.22 -0.57,-0.32 -0.06,-0.04 -0.15,-0.09 -0.21,-0.12 -2.2,-1.24 -4.42,-2.49 -6.61,-3.74 l -0.03,-0.01 c -13.02,-7.37 -26.02,-14.87 -38.99,-22.49 l -0.03,-0.01 c -3.98,-2.34 -7.96,-4.69 -11.93,-7.05 -0.03,-0.02 -0.09,-0.05 -0.12,-0.07 -0.71,-0.42 -1.42,-0.84 -2.14,-1.27 l -0.03,-0.02 c -0.21,-0.12 -0.42,-0.25 -0.63,-0.38 -0.07,-0.03 -0.14,-0.08 -0.2,-0.11 -2.44,-1.46 -4.9,-2.92 -7.33,-4.39 -0.04,-0.02 -0.07,-0.03 -0.1,-0.05 -1.22,-0.73 -2.42,-1.46 -3.64,-2.19 -0.03,-0.02 -0.05,-0.03 -0.08,-0.05 -0.22,-0.13 -0.43,-0.26 -0.64,-0.38 -0.06,-0.04 -0.15,-0.09 -0.21,-0.13 -0.89,-0.54 -1.82,-1.1 -2.71,-1.64 -0.09,-0.05 -0.14,-0.08 -0.23,-0.14 -0.49,-0.29 -0.92,-0.55 -1.4,-0.84 -0.03,-0.02 -0.04,-0.03 -0.07,-0.05 -0.39,-0.23 -0.76,-0.46 -1.15,-0.69 -0.09,-0.06 -0.22,-0.13 -0.31,-0.19 -0.18,-0.11 -0.37,-0.22 -0.54,-0.33 -0.1,-0.06 -0.17,-0.1 -0.27,-0.16 -0.15,-0.09 -0.32,-0.2 -0.48,-0.29 -0.15,-0.09 -0.26,-0.16 -0.41,-0.25 -0.16,-0.1 -0.29,-0.18 -0.44,-0.27 -0.22,-0.13 -0.38,-0.23 -0.6,-0.36 -0.06,-0.04 -0.13,-0.08 -0.19,-0.11 -0.21,-0.14 -0.44,-0.27 -0.66,-0.41 -0.17,-0.1 -0.39,-0.23 -0.56,-0.34 -0.16,-0.09 -0.32,-0.19 -0.47,-0.29 -0.12,-0.07 -0.23,-0.14 -0.35,-0.21 -0.15,-0.09 -0.33,-0.2 -0.49,-0.3 -0.12,-0.07 -0.23,-0.13 -0.34,-0.2 -0.22,-0.14 -0.44,-0.27 -0.66,-0.4 -0.07,-0.05 -0.12,-0.08 -0.2,-0.13 -0.28,-0.17 -0.57,-0.35 -0.85,-0.52 -0.06,-0.03 -0.12,-0.07 -0.18,-0.1 -0.22,-0.14 -0.43,-0.27 -0.64,-0.4 -0.12,-0.07 -0.23,-0.14 -0.35,-0.21 -0.15,-0.09 -0.31,-0.19 -0.46,-0.28 -0.14,-0.09 -0.32,-0.2 -0.46,-0.28 -0.21,-0.13 -0.4,-0.25 -0.62,-0.38 -0.04,-0.03 -0.08,-0.05 -0.11,-0.07 -0.28,-0.17 -0.57,-0.35 -0.85,-0.52 -0.09,-0.06 -0.22,-0.13 -0.31,-0.19 -0.19,-0.12 -0.39,-0.24 -0.57,-0.35 -0.1,-0.06 -0.22,-0.14 -0.32,-0.2 -0.19,-0.11 -0.34,-0.2 -0.52,-0.32 -0.1,-0.06 -0.23,-0.13 -0.32,-0.19 -0.25,-0.16 -0.47,-0.29 -0.72,-0.44 -0.03,-0.02 -0.08,-0.05 -0.12,-0.07 -0.28,-0.18 -0.58,-0.37 -0.86,-0.54 -0.1,-0.06 -0.16,-0.09 -0.25,-0.15 -0.19,-0.12 -0.39,-0.24 -0.58,-0.35 -0.09,-0.06 -0.22,-0.14 -0.31,-0.2 -0.19,-0.11 -0.41,-0.25 -0.6,-0.37 -0.1,-0.06 -0.17,-0.1 -0.26,-0.16 -0.25,-0.15 -0.52,-0.32 -0.76,-0.47 -0.02,-0.01 -0.05,-0.02 -0.07,-0.04 -0.24,-0.15 -0.53,-0.33 -0.78,-0.48 -0.11,-0.07 -0.27,-0.16 -0.38,-0.24 -0.19,-0.11 -0.38,-0.23 -0.57,-0.35 -0.12,-0.07 -0.24,-0.14 -0.36,-0.22 -0.15,-0.09 -0.27,-0.16 -0.42,-0.26 -0.14,-0.08 -0.31,-0.19 -0.45,-0.28 -0.12,-0.07 -0.28,-0.17 -0.4,-0.24 -0.16,-0.1 -0.31,-0.2 -0.46,-0.29 -0.1,-0.06 -0.16,-0.1 -0.25,-0.15 -0.29,-0.18 -0.61,-0.38 -0.9,-0.56 -0.15,-0.09 -0.27,-0.17 -0.42,-0.26 -0.12,-0.07 -0.27,-0.17 -0.39,-0.24 -0.15,-0.1 -0.34,-0.21 -0.49,-0.31 -0.12,-0.07 -0.26,-0.16 -0.37,-0.23 -0.22,-0.13 -0.41,-0.25 -0.63,-0.39 -0.06,-0.03 -0.08,-0.05 -0.14,-0.09 -0.31,-0.19 -0.53,-0.33 -0.84,-0.52 -0.06,-0.03 -0.1,-0.06 -0.16,-0.1 -0.25,-0.15 -0.5,-0.3 -0.74,-0.46 -0.1,-0.06 -0.23,-0.14 -0.33,-0.2 -0.15,-0.09 -0.31,-0.2 -0.47,-0.29 -0.13,-0.09 -0.23,-0.15 -0.37,-0.23 -0.18,-0.12 -0.44,-0.28 -0.62,-0.39 -0.06,-0.04 -0.15,-0.09 -0.2,-0.13 -0.56,-0.34 -1.14,-0.71 -1.7,-1.06 -0.1,-0.06 -0.17,-0.1 -0.27,-0.16 -0.21,-0.14 -0.41,-0.26 -0.62,-0.4 -0.08,-0.04 -0.18,-0.1 -0.25,-0.15 -0.25,-0.15 -0.48,-0.3 -0.73,-0.45 -0.02,-0.01 -0.07,-0.05 -0.09,-0.06 -0.25,-0.16 -0.45,-0.29 -0.7,-0.44 -0.12,-0.07 -0.25,-0.15 -0.36,-0.23 -0.25,-0.15 -0.48,-0.29 -0.73,-0.45 -0.05,-0.04 -0.08,-0.05 -0.14,-0.09 -0.21,-0.13 -0.48,-0.3 -0.7,-0.44 -0.08,-0.05 -0.15,-0.09 -0.23,-0.14 -0.24,-0.16 -0.47,-0.3 -0.72,-0.45 -0.04,-0.03 -0.1,-0.07 -0.14,-0.09 -0.89,-0.56 -1.77,-1.12 -2.67,-1.68 -0.04,-0.02 -0.07,-0.04 -0.11,-0.07 -1.2,-0.76 -2.38,-1.5 -3.59,-2.26 -0.04,-0.03 -0.03,-0.02 -0.07,-0.05 -1.23,-0.78 -2.41,-1.52 -3.64,-2.31 h -0.01 c -3.67,-2.33 -7.34,-4.67 -11.01,-7.03 -0.02,-0.01 -0.04,-0.02 -0.06,-0.04 -15.28,-9.8 -30.55,-19.83 -45.66,-30 l -0.02,-0.01 c -0.27,-0.18 -0.62,-0.42 -0.89,-0.6 l -0.01,-0.01 c -0.92,-0.61 -1.79,-1.2 -2.7,-1.82 -0.02,-0.01 -0.05,-0.03 -0.07,-0.04 -1.15,-0.78 -2.36,-1.6 -3.51,-2.38 -0.06,-0.04 -0.11,-0.07 -0.17,-0.11 -0.27,-0.19 -0.51,-0.35 -0.78,-0.53 -0.02,-0.02 -0.04,-0.03 -0.05,-0.04 -1.22,-0.83 -2.38,-1.62 -3.59,-2.44 l -0.03,-0.02 c -0.27,-0.19 -0.55,-0.38 -0.82,-0.56 -0.04,-0.03 -0.07,-0.05 -0.1,-0.07 -0.58,-0.4 -1.17,-0.8 -1.74,-1.19 -0.04,-0.03 -0.07,-0.05 -0.11,-0.07 -0.27,-0.19 -0.51,-0.35 -0.78,-0.54 -0.04,-0.02 -0.08,-0.05 -0.12,-0.08 -0.27,-0.18 -0.55,-0.37 -0.82,-0.56 l -0.03,-0.02 c -0.58,-0.4 -1.18,-0.81 -1.76,-1.2 -0.05,-0.04 -0.1,-0.08 -0.16,-0.12 -0.21,-0.14 -0.48,-0.33 -0.69,-0.47 -0.06,-0.04 -0.11,-0.08 -0.17,-0.12 -0.27,-0.18 -0.49,-0.34 -0.77,-0.52 -0.02,-0.02 -0.07,-0.06 -0.09,-0.07 -0.55,-0.37 -1.15,-0.79 -1.7,-1.17 -0.09,-0.06 -0.15,-0.1 -0.24,-0.17 -0.22,-0.14 -0.41,-0.28 -0.62,-0.42 -0.08,-0.06 -0.18,-0.12 -0.25,-0.18 -0.18,-0.12 -0.41,-0.28 -0.6,-0.4 -0.07,-0.06 -0.17,-0.13 -0.25,-0.18 -0.27,-0.19 -0.56,-0.39 -0.83,-0.57 -188.01,-129.94 -360.57,-266.19 -517.2,-402.38 m -3478.87,903.49 c -4.31,56.55 -20.8,119.27 -28.11,174.19 -34.07,256.14 191.28,460.52 405.66,564.37 250.13,121.17 520.62,178.62 792.16,178.62 119.71,0 239.59,-11.16 358.01,-32.97 -267.24,-73.83 -314.49,-276.43 -314.49,-276.43 0,0 2.79,-6.89 8.22,-17.41 -73.37,-65.58 -147.61,-132.78 -211.64,-191.05 l -452.63,-183.45 -522.4,-170.73 -34.78,-45.14 m 2615,318.11 -544.81,64.05 c -143.22,205.39 -323.85,405.55 -427.54,477.44 358.79,-87.68 698.89,-273.32 972.35,-541.49"
         style="fill:#e7f7fa;fill-opacity:1;fill-rule:nonzero;stroke:none"
         id="path20" /><path
         d="M 98.1914,653.332 1015.45,887 c 0,0 -309.63,460.54 -560.302,408.68 C 317.836,1267.29 98.1914,653.332 98.1914,653.332"
         style="fill:#ead4bb;fill-opacity:1;fill-rule:nonzero;stroke:none"
         id="path22" /><path
         d="m 447.695,1293.55 c 2.504,0.88 4.996,1.64 7.453,2.14 250.672,51.85 589.082,-401.35 589.082,-401.35 L 426.332,736.922 c 98.879,221.348 145.738,263.047 21.363,556.628"
         style="fill:#d4b899;fill-opacity:1;fill-rule:nonzero;stroke:none"
         id="path24" /><path
         d="m 480.617,866.148 -4.375,37.973 c -0.73,-0.019 -1.465,-0.031 -2.199,-0.031 -18.609,0 -38.184,5.769 -50.375,14.32 l 5.039,25.531 c 12.203,-8 28.926,-14.121 46.316,-14.121 1.075,0 2.153,0.02 3.235,0.071 23.512,1.05 37.621,17.179 35.156,38.609 -2.383,20.648 -16.773,32.86 -42.582,43.03 -35.508,13.55 -58.363,29.91 -62.129,62.61 -3.605,31.17 13.203,55.73 43.016,62.74 l -4.379,37.94 20.527,0.9 4.203,-36.43 c 0.25,0 0.496,0 0.743,0 13.398,0 24.199,-2.51 32.96,-5.98 2.415,-8.9 4.559,-17.5 6.434,-25.83 l -0.992,-4.61 c -7.039,3.97 -20.371,11.01 -39.645,11.01 -1.16,0 -2.34,-0.03 -3.543,-0.08 -25.504,-1.14 -33.109,-18.86 -31.379,-33.89 2.258,-19.54 15.637,-28.77 46.008,-41.01 16.918,-6.72 30.188,-14.44 39.899,-24.22 -0.887,-37.348 -8.633,-71.16 -21.586,-107.43 -1.305,-0.398 -2.637,-0.75 -4,-1.078 l 0.863,-7.492 c -3.93,-10.489 -8.277,-21.231 -13.004,-32.34 l -4.211,-0.192"
         style="fill:#9e786e;fill-opacity:1;fill-rule:nonzero;stroke:none"
         id="path26" /><path
         d="m 484.828,866.34 c 4.727,11.109 9.074,21.851 13.004,32.34 l 3.645,-31.59 -16.649,-0.75 m 16.141,40.91 c 12.953,36.27 20.699,70.082 21.586,107.43 10.906,-10.99 17.32,-24.578 19.367,-42.282 3.285,-28.468 -10.395,-55.968 -40.953,-65.148 m 11.238,200.23 c -1.875,8.33 -4.019,16.93 -6.434,25.83 4.04,-1.6 7.645,-3.41 10.868,-5.26 l -4.434,-20.57"
         style="fill:#90695c;fill-opacity:1;fill-rule:nonzero;stroke:none"
         id="path28" /><path
         d="m 432.676,1295.14 c -6.668,12.99 -2.965,25.85 8.281,28.71 11.246,2.87 25.773,-5.34 32.441,-18.33 6.672,-13 2.965,-25.85 -8.281,-28.71 -11.246,-2.86 -25.769,5.34 -32.441,18.33"
         style="fill:#7a493f;fill-opacity:1;fill-rule:nonzero;stroke:none"
         id="path30" /><path
         d="m 449.977,1312.96 c 50.718,-9.83 196.875,-55.89 239.183,-263.14 6.852,-33.55 -48.437,18.89 -64.773,-27.4 -26.809,-75.951 -42.645,-64.959 -42.645,-64.959 -21.445,1.25 -11.234,249.529 -133.246,345.609 -3.453,2.71 -2.336,10.63 1.481,9.89"
         style="fill:#e8ceaa;fill-opacity:1;fill-rule:nonzero;stroke:none"
         id="path32" /><path
         d="M 1520,283.43 0,0 V 1030 C 419.242,913.219 966.543,602.98 1520,283.43"
         style="fill:#f7902d;fill-opacity:1;fill-rule:nonzero;stroke:none"
         id="path34" /><path
         d="m 8480,0 h 1520 V 1170 C 9580.76,1037.35 9033.46,362.992 8480,0"
         style="fill:#f57a2e;fill-opacity:1;fill-rule:nonzero;stroke:none"
         id="path36" /><path
         d="M 9750,0 H 5591.74 c 0,0 568.05,931.051 1626.58,1662.62 495.66,342.56 1103.99,482.47 1103.99,482.47 0,0 861.34,-828.85 1427.69,-2145.09"
         style="fill:#f9b02d;fill-opacity:1;fill-rule:nonzero;stroke:none"
         id="path38" /><path
         d="m 7218.32,1662.62 c 308.1,212.93 659.64,347.52 881.64,418.92 59.92,-58.58 105.43,-129.73 133.95,-213.38 C 8413.97,1339.87 7849.29,510.262 6968.33,0 H 5591.74 c 0,0 568.05,931.051 1626.58,1662.62"
         style="fill:#fabc2b;fill-opacity:1;fill-rule:nonzero;stroke:none"
         id="path40" /><path
         d="M 8322.31,2145.09 C 8908.72,1624.93 9183.65,1316.24 9750,0 h -952.62 c 52.22,145.07 90.37,1411.79 -475.07,2145.09"
         style="fill:#f7902d;fill-opacity:1;fill-rule:nonzero;stroke:none"
         id="path42" /><path
         d="m 8459.4,1603.69 c -3.22,27.21 18.03,49.26 47.47,49.26 29.43,0 55.89,-22.05 59.11,-49.26 3.22,-27.2 -18.04,-49.25 -47.47,-49.25 -29.43,0 -55.9,22.05 -59.11,49.25"
         style="fill:#fabc2b;fill-opacity:1;fill-rule:nonzero;stroke:none"
         id="path44" /><path
         d="m 8154.29,1519.64 c 15.32,19.37 51.73,23.14 81.31,8.43 29.57,-14.72 41.12,-42.36 25.79,-61.72 -15.33,-19.37 -51.74,-23.15 -81.31,-8.43 -29.58,14.72 -41.12,42.35 -25.79,61.72"
         style="fill:#f9b02d;fill-opacity:1;fill-rule:nonzero;stroke:none"
         id="path46" /><path
         d="m 7794.03,1675.52 c 19.4,11.61 59.1,9.1 88.67,-5.62 29.58,-14.71 37.83,-36.06 18.43,-47.68 -19.39,-11.61 -59.09,-9.1 -88.67,5.61 -29.57,14.72 -37.82,36.07 -18.43,47.69"
         style="fill:#f9b02d;fill-opacity:1;fill-rule:nonzero;stroke:none"
         id="path48" /><path
         d="m 8112.68,1933.68 c 12.56,24.33 45.93,48.35 74.54,53.65 28.6,5.31 41.6,-10.11 29.03,-34.44 -12.57,-24.33 -45.94,-48.34 -74.54,-53.64 -28.6,-5.3 -41.6,10.12 -29.03,34.43"
         style="fill:#f9b02d;fill-opacity:1;fill-rule:nonzero;stroke:none"
         id="path50" /><path
         d="m 7575.68,1366.22 c 9.93,26.55 41.94,47.02 71.51,45.72 29.57,-1.3 45.5,-23.87 35.57,-50.43 -9.91,-26.55 -41.93,-47.03 -71.5,-45.73 -29.57,1.3 -45.5,23.89 -35.58,50.44"
         style="fill:#fcd255;fill-opacity:1;fill-rule:nonzero;stroke:none"
         id="path52" /><path
         d="m 7752.53,1015.53 c 19.81,8.82 57.13,-7.21 83.33,-35.811 26.2,-28.598 31.38,-58.938 11.55,-67.77 -19.82,-8.82 -57.13,7.211 -83.34,35.813 -26.2,28.597 -31.36,58.938 -11.54,67.768"
         style="fill:#fcd255;fill-opacity:1;fill-rule:nonzero;stroke:none"
         id="path54" /><path
         d="m 6322.99,560.609 c 13.73,21.903 49.07,31.11 78.94,20.563 29.87,-10.551 42.94,-36.852 29.21,-58.762 -13.73,-21.898 -49.07,-31.101 -78.93,-20.551 -29.88,10.539 -42.95,36.84 -29.22,58.75"
         style="fill:#fcd255;fill-opacity:1;fill-rule:nonzero;stroke:none"
         id="path56" /><path
         d="m 6843.18,1235.57 c 11.54,17.43 42.17,25.04 68.41,16.98 26.25,-8.06 38.18,-28.72 26.64,-46.15 -11.54,-17.44 -42.16,-25.03 -68.41,-16.98 -26.25,8.06 -38.17,28.71 -26.64,46.15"
         style="fill:#fcd255;fill-opacity:1;fill-rule:nonzero;stroke:none"
         id="path58" /><path
         d="m 5897.34,234.488 c 11.54,17.434 42.16,25.032 68.41,16.973 26.25,-8.051 38.18,-28.711 26.63,-46.141 -11.53,-17.429 -42.16,-25.039 -68.4,-16.98 -26.25,8.062 -38.18,28.719 -26.64,46.148"
         style="fill:#fcd255;fill-opacity:1;fill-rule:nonzero;stroke:none"
         id="path60" /><path
         d="m 7211.48,1330.58 c 14.64,11.58 46.98,6.68 72.21,-10.96 25.24,-17.63 33.81,-41.32 19.16,-52.9 -14.65,-11.58 -46.98,-6.68 -72.21,10.96 -25.23,17.62 -33.81,41.31 -19.16,52.9"
         style="fill:#fcd255;fill-opacity:1;fill-rule:nonzero;stroke:none"
         id="path62" /><path
         d="m 8310.27,1031.83 c 14.65,11.58 46.98,6.68 72.21,-10.96 25.24,-17.64 33.81,-41.319 19.16,-52.901 -14.65,-11.578 -46.97,-6.68 -72.21,10.961 -25.23,17.621 -33.81,41.31 -19.16,52.9"
         style="fill:#fccd35;fill-opacity:1;fill-rule:nonzero;stroke:none"
         id="path64" /><path
         d="m 8514.5,1892.92 c 14.65,11.59 46.98,6.68 72.22,-10.95 25.23,-17.63 33.81,-41.32 19.16,-52.9 -14.65,-11.58 -46.98,-6.68 -72.21,10.96 -25.23,17.63 -33.82,41.31 -19.17,52.89"
         style="fill:#f9b02d;fill-opacity:1;fill-rule:nonzero;stroke:none"
         id="path66" /><path
         d="m 8633.04,1252.64 c 14.65,11.58 46.97,6.68 72.2,-10.95 25.24,-17.64 33.82,-41.32 19.16,-52.9 -14.64,-11.58 -46.97,-6.68 -72.2,10.95 -25.24,17.63 -33.81,41.31 -19.16,52.9"
         style="fill:#fabc2b;fill-opacity:1;fill-rule:nonzero;stroke:none"
         id="path68" /><path
         d="m 7475.91,733.238 c 10.38,19.063 40.05,30.571 66.26,25.703 26.2,-4.882 39.03,-24.289 28.65,-43.351 -10.39,-19.07 -40.06,-30.57 -66.26,-25.699 -26.21,4.89 -39.04,24.289 -28.65,43.347"
         style="fill:#fcd255;fill-opacity:1;fill-rule:nonzero;stroke:none"
         id="path70" /><path
         d="m 8181.25,217.352 c 15.22,10.179 47.65,2.519 72.43,-17.09 24.79,-19.621 32.54,-43.762 17.33,-53.922 -15.22,-10.168 -47.64,-2.508 -72.43,17.101 -24.78,19.61 -32.54,43.75 -17.33,53.911"
         style="fill:#fccd35;fill-opacity:1;fill-rule:nonzero;stroke:none"
         id="path72" /><path
         d="m 8672.68,724.828 c 7.84,21.992 34.97,41.113 60.58,42.711 25.62,1.609 40.03,-14.91 32.18,-36.891 -7.85,-21.976 -34.98,-41.097 -60.6,-42.707 -25.61,-1.601 -40.02,14.911 -32.16,36.887"
         style="fill:#fccd35;fill-opacity:1;fill-rule:nonzero;stroke:none"
         id="path74" /><path
         d="m 3339.75,1426.35 -1332.6,242.05 c 0,0 769.14,806.6 933.17,851.95 164.02,45.35 399.43,-1094 399.43,-1094"
         style="fill:#f4d2b9;fill-opacity:1;fill-rule:nonzero;stroke:none"
         id="path76" /><path
         d="m 2708.66,1731.03 c 292,272.36 399.32,623.25 239.71,783.74 -2.04,2.05 -4.26,3.88 -6.37,5.86 163.94,37.21 397.75,-1094.28 397.75,-1094.28 l -832.91,151.29 c 68.88,41.74 137.17,93.09 201.82,153.39"
         style="fill:#e5c0a9;fill-opacity:1;fill-rule:nonzero;stroke:none"
         id="path78" /><path
         d="m 2925.11,2512.58 c 1.52,17.86 17.1,29.74 34.78,26.53 17.69,-3.21 30.79,-20.3 29.26,-38.16 -1.53,-17.87 -17.1,-29.75 -34.78,-26.54 -17.69,3.22 -30.79,20.31 -29.26,38.17"
         style="fill:#8e4b48;fill-opacity:1;fill-rule:nonzero;stroke:none"
         id="path80" /><path
         d="m 3202.8,2120.72 c 0,0 -62.16,-59.83 -169.39,9.12 0,0 30.41,387.21 -74.48,375.35 l -4.86,16.33 c 69.71,114.12 230.22,-7.8 248.73,-400.8"
         style="fill:#fddecd;fill-opacity:1;fill-rule:nonzero;stroke:none"
         id="path82" /><path
         d="m 2777.33,1800.13 2.15,4.45 c -33.14,34.58 -37.16,81.37 -20.5,115.79 14.45,29.86 35.26,42.05 64.86,42.05 8.87,0 18.52,-1.09 29.03,-3.13 12.88,-2.42 23.54,-3.85 32.44,-3.85 5.11,0 9.64,0.47 13.68,1.5 -9.29,-14.47 -19.06,-28.91 -29.34,-43.31 -5.05,0.72 -10.28,1.67 -15.71,2.82 -8.71,1.71 -16.59,2.65 -23.69,2.65 -19.58,0 -33.2,-7.13 -41.71,-24.71 -10.56,-21.83 -5.31,-48.07 13.3,-66.81 -7.98,-9.21 -16.14,-18.35 -24.51,-27.45 m 148.44,200.98 c -1.03,13.67 -7.86,28.47 -24.3,40.62 -22.83,16.87 -42.08,18.1 -52.11,18.39 l 5,35.38 c 13.93,-0.25 31.93,-4.06 53.76,-19.02 l 20.45,42.26 22.11,-16.34 -21.29,-44 c 6.32,-6.58 11.65,-13.71 15.95,-21.21 -6.17,-12 -12.7,-24.05 -19.57,-36.08"
         style="fill:#a4776e;fill-opacity:1;fill-rule:nonzero;stroke:none"
         id="path84" /><path
         d="m 2780.02,1742.64 -22.47,16.61 19.78,40.88 c 8.37,9.1 16.53,18.24 24.51,27.45 2.57,-2.59 5.39,-5.04 8.47,-7.31 18.47,-13.66 39.17,-19.33 56.34,-19.33 1.39,0 2.75,0.04 4.1,0.11 l -5.58,-35.53 c -1.56,-0.15 -3.17,-0.22 -4.83,-0.22 -17.31,0 -39.96,7.82 -59.03,21.38 l -21.29,-44.04 m 110.13,169.37 c -6.44,0 -13.28,0.58 -20.5,1.62 10.28,14.4 20.05,28.84 29.34,43.31 10,2.57 16.94,8.58 22.15,19.34 3.39,7.01 5.31,15.66 4.63,24.83 6.87,12.03 13.4,24.08 19.57,36.08 15.85,-27.66 17.71,-60.36 3.94,-88.8 -12.95,-26.79 -32.8,-36.38 -59.13,-36.38"
         style="fill:#9a6d64;fill-opacity:1;fill-rule:nonzero;stroke:none"
         id="path86" /><path
         d="M 3631.94,0 H 0 l 569.414,899.98 259.742,616.3 842.904,1173.89 517.83,-244.56 625.17,-792.38 172.95,-225 L 3631.94,0"
         style="fill:#f9b02d;fill-opacity:1;fill-rule:nonzero;stroke:none"
         id="path88" /><path
         d="m 2189.89,2445.61 625.17,-792.38 172.95,-225 L 3631.94,0 H 1783.71 c -25.52,97.2617 -55.89,196.43 -91.68,296.73 -204.22,572.231 243.39,2365.76 497.86,2148.88"
         style="fill:#f7902d;fill-opacity:1;fill-rule:nonzero;stroke:none"
         id="path90" /><path
         d="m 1249.21,1420.09 c 2.66,12.53 29.72,12.59 60.46,0.12 30.74,-12.46 53.51,-32.71 50.87,-45.24 -2.65,-12.53 -29.72,-12.59 -60.46,-0.13 -30.74,12.46 -53.51,32.72 -50.87,45.25"
         style="fill:#fccd35;fill-opacity:1;fill-rule:nonzero;stroke:none"
         id="path92" /><path
         d="m 1572.17,1939.68 c 6.27,9.46 35.59,-0.36 65.49,-21.94 29.9,-21.58 49.05,-46.73 42.78,-56.2 -6.26,-9.46 -35.59,0.36 -65.48,21.94 -29.91,21.57 -49.06,46.73 -42.79,56.2"
         style="fill:#fccd35;fill-opacity:1;fill-rule:nonzero;stroke:none"
         id="path94" /><path
         d="m 1403.89,1627.34 c 10.01,5.36 31.15,-17.2 47.22,-50.39 16.07,-33.17 20.98,-64.4 10.97,-69.75 -10.01,-5.35 -31.16,17.2 -47.23,50.39 -16.06,33.17 -20.97,64.41 -10.96,69.75"
         style="fill:#fccd35;fill-opacity:1;fill-rule:nonzero;stroke:none"
         id="path96" /><path
         d="m 1737.84,2428.64 c 11.06,-5.64 12.1,-36.81 2.33,-69.65 -9.77,-32.83 -26.65,-54.87 -37.71,-49.23 -11.06,5.64 -12.11,36.82 -2.34,69.64 9.77,32.84 26.66,54.88 37.72,49.24"
         style="fill:#fccd35;fill-opacity:1;fill-rule:nonzero;stroke:none"
         id="path98" /><path
         d="m 1413.2,1053.93 c 20.09,16.21 64.2,17.11 98.54,2 34.33,-15.11 45.88,-40.49 25.8,-56.7 -20.09,-16.21 -64.2,-17.109 -98.54,-2 -34.33,15.1 -45.88,40.49 -25.8,56.7"
         style="fill:#fccd35;fill-opacity:1;fill-rule:nonzero;stroke:none"
         id="path100" /><path
         d="m 476.305,1385.84 c -2.258,12.61 22.808,22.83 55.98,22.83 33.168,0 61.879,-10.22 64.133,-22.83 2.254,-12.6 -22.809,-22.82 -55.977,-22.82 -33.171,0 -61.886,10.22 -64.136,22.82"
         style="fill:#f9b02d;fill-opacity:1;fill-rule:nonzero;stroke:none"
         id="path102" /><path
         d="m 1717.36,209.07 c -0.88,12.52 25.68,19.59 59.33,15.782 33.64,-3.813 61.63,-17.051 62.5,-29.582 0.88,-12.532 -25.68,-19.598 -59.33,-15.79 -33.64,3.809 -61.63,17.059 -62.5,29.59"
         style="fill:#f9b02d;fill-opacity:1;fill-rule:nonzero;stroke:none"
         id="path104" /><path
         d="m 541.801,1636.03 c 7.273,8.72 35.34,-4.25 62.691,-28.97 27.356,-24.72 43.637,-51.82 36.367,-60.54 -7.265,-8.72 -35.336,4.25 -62.691,28.97 -27.352,24.72 -43.637,51.81 -36.367,60.54"
         style="fill:#f9b02d;fill-opacity:1;fill-rule:nonzero;stroke:none"
         id="path106" /><path
         d="m 2255.64,2588.18 c 7.28,8.72 35.34,-4.24 62.7,-28.96 27.35,-24.72 43.63,-51.82 36.36,-60.54 -7.26,-8.72 -35.33,4.25 -62.69,28.97 -27.35,24.71 -43.64,51.81 -36.37,60.53"
         style="fill:#f9b02d;fill-opacity:1;fill-rule:nonzero;stroke:none"
         id="path108" /><path
         d="m 2617.52,2372.98 c -3.84,12.48 19.06,26.08 51.16,30.41 32.09,4.32 61.23,-2.3 65.07,-14.77 3.84,-12.47 -19.06,-26.08 -51.15,-30.41 -32.1,-4.31 -61.23,2.3 -65.08,14.77"
         style="fill:#f9b02d;fill-opacity:1;fill-rule:nonzero;stroke:none"
         id="path110" /><path
         d="m 550.328,2504.08 c 12.367,-1.07 25.047,-29.58 28.324,-63.67 3.278,-34.09 -4.097,-60.87 -16.461,-59.79 -12.367,1.06 -25.046,29.57 -28.324,63.67 -3.277,34.09 4.098,60.86 16.461,59.79"
         style="fill:#f9b02d;fill-opacity:1;fill-rule:nonzero;stroke:none"
         id="path112" /><path
         d="m 1439.43,780.762 c -4.13,23.117 22.77,41.859 60.09,41.859 37.31,0 70.91,-18.742 75.04,-41.859 4.13,-23.11 -22.77,-41.86 -60.09,-41.86 -37.32,0 -70.91,18.75 -75.04,41.86"
         style="fill:#f9b02d;fill-opacity:1;fill-rule:nonzero;stroke:none"
         id="path114" /><path
         d="m 2499.6,1521.3 c -0.46,17.44 28.3,16.45 64.26,-2.21 35.95,-18.67 65.49,-47.95 65.95,-65.4 0.47,-17.45 -28.29,-16.46 -64.25,2.21 -35.96,18.66 -65.49,47.95 -65.96,65.4"
         style="fill:#f9b02d;fill-opacity:1;fill-rule:nonzero;stroke:none"
         id="path116" /><path
         d="m 1824.23,1199.63 c -11.16,15.39 8.75,32.89 44.47,39.09 35.72,6.2 73.72,-1.25 84.88,-16.63 11.17,-15.39 -8.75,-32.89 -44.46,-39.09 -35.73,-6.2 -73.73,1.25 -84.89,16.63"
         style="fill:#f9b02d;fill-opacity:1;fill-rule:nonzero;stroke:none"
         id="path118" /><path
         d="m 2040.3,2303.56 c -9.48,16.32 12.82,30.85 49.81,32.47 37,1.62 74.68,-10.31 84.16,-26.62 9.48,-16.3 -12.82,-30.85 -49.82,-32.46 -36.99,-1.61 -74.66,10.31 -84.15,26.61"
         style="fill:#f9b02d;fill-opacity:1;fill-rule:nonzero;stroke:none"
         id="path120" /><path
         d="m 1845.28,2063.42 c -2.21,17.64 25.99,19.59 62.98,4.36 36.99,-15.23 68.77,-41.88 70.98,-59.52 2.21,-17.64 -25.99,-19.59 -62.98,-4.35 -36.99,15.23 -68.77,41.87 -70.98,59.51"
         style="fill:#f9b02d;fill-opacity:1;fill-rule:nonzero;stroke:none"
         id="path122" /><path
         d="m 1173.37,2095.41 c -9.2,16.44 13.44,30.49 50.59,31.39 37.14,0.89 74.72,-11.71 83.93,-28.15 9.21,-16.43 -13.44,-30.49 -50.58,-31.38 -37.15,-0.89 -74.73,11.7 -83.94,28.14"
         style="fill:#fccd35;fill-opacity:1;fill-rule:nonzero;stroke:none"
         id="path124" /><path
         d="m 2092.74,1623.75 c -9.21,16.44 13.44,30.49 50.59,31.38 37.14,0.9 74.72,-11.7 83.93,-28.14 9.21,-16.44 -13.44,-30.49 -50.58,-31.38 -37.15,-0.89 -74.73,11.7 -83.94,28.14"
         style="fill:#f9b02d;fill-opacity:1;fill-rule:nonzero;stroke:none"
         id="path126" /><path
         d="m 2223.04,2059.4 c -3.83,17.65 23.56,22.39 61.18,10.57 37.63,-11.82 71.24,-35.7 75.08,-53.36 3.84,-17.65 -23.56,-22.37 -61.18,-10.57 -37.63,11.82 -71.24,35.71 -75.08,53.36"
         style="fill:#f9b02d;fill-opacity:1;fill-rule:nonzero;stroke:none"
         id="path128" /><path
         d="m 1399.48,1084.65 c 19.4,16.46 65.55,19.67 103.07,7.16 37.53,-12.5 52.22,-35.99 32.83,-52.45 -19.4,-16.46 -65.55,-19.67 -103.07,-7.16 -37.53,12.51 -52.22,35.99 -32.83,52.45"
         style="fill:#f9b02d;fill-opacity:1;fill-rule:nonzero;stroke:none"
         id="path130" /><path
         d="m 1807.28,2633.59 c 16.38,19.95 59.4,29.78 96.08,21.96 36.69,-7.83 53.15,-30.34 36.77,-50.29 -16.38,-19.95 -59.4,-29.77 -96.08,-21.95 -36.69,7.82 -53.15,30.34 -36.77,50.28"
         style="fill:#fccd35;fill-opacity:1;fill-rule:nonzero;stroke:none"
         id="path132" /><path
         d="m 940.617,1686.93 c 16.375,19.94 59.393,29.77 96.073,21.95 36.69,-7.83 53.15,-30.34 36.77,-50.29 -16.37,-19.95 -59.39,-29.77 -96.077,-21.95 -36.684,7.82 -53.145,30.34 -36.766,50.29"
         style="fill:#fccd35;fill-opacity:1;fill-rule:nonzero;stroke:none"
         id="path134" /><path
         d="m 765.813,1108.1 c 12.527,22.55 53.074,39.96 90.57,38.85 37.496,-1.1 57.734,-20.29 45.211,-42.86 -12.531,-22.57 -53.082,-39.96 -90.574,-38.86 -37.493,1.11 -57.735,20.3 -45.207,42.87"
         style="fill:#fccd35;fill-opacity:1;fill-rule:nonzero;stroke:none"
         id="path136" /><path
         d="m 973.898,612.07 c 25.11,7.5 72.452,-6.121 105.722,-30.429 33.28,-24.313 39.89,-50.09 14.78,-57.59 -25.12,-7.5 -72.45,6.129 -105.728,30.429 -33.277,24.301 -39.887,50.09 -14.774,57.59"
         style="fill:#fccd35;fill-opacity:1;fill-rule:nonzero;stroke:none"
         id="path138" /><path
         d="m 1984.61,764.82 c 24.23,9.34 71.79,-1.121 106.23,-23.351 34.43,-22.219 42.7,-47.809 18.47,-57.137 -24.24,-9.332 -71.8,1.117 -106.23,23.359 -34.44,22.219 -42.7,47.809 -18.47,57.129"
         style="fill:#f9b02d;fill-opacity:1;fill-rule:nonzero;stroke:none"
         id="path140" /><path
         d="m 512.844,388.109 c 14.594,14.813 53.406,21.27 86.699,14.422 33.289,-6.851 48.449,-24.41 33.855,-39.222 -14.589,-14.797 -53.406,-21.27 -86.699,-14.418 -33.289,6.839 -48.453,24.398 -33.855,39.218"
         style="fill:#fccd35;fill-opacity:1;fill-rule:nonzero;stroke:none"
         id="path142" /><path
         d="m 1343.28,258.309 c 9.9,18.679 44.26,34.929 76.74,36.3 32.48,1.371 50.77,-12.679 40.86,-31.359 -9.9,-18.668 -44.26,-34.918 -76.73,-36.289 -32.48,-1.359 -50.78,12.68 -40.87,31.348"
         style="fill:#fccd35;fill-opacity:1;fill-rule:nonzero;stroke:none"
         id="path144" /><path
         d="M 9157.3,0 H 7391.47 c 0,0 436.46,895.91 933.85,915.84 C 8597.76,926.77 9157.3,0 9157.3,0"
         style="fill:#e8cfaf;fill-opacity:1;fill-rule:nonzero;stroke:none"
         id="path146" /><path
         d="M 8388.14,904.262 C 8675.23,798.379 9157.3,0 9157.3,0 h -861.17 c 178.23,294.801 221.71,654.539 92.01,904.262"
         style="fill:#d4b899;fill-opacity:1;fill-rule:nonzero;stroke:none"
         id="path148" /><path
         d="m 8334.51,908.66 c -4.97,15.289 5.36,27.672 23.07,27.672 17.71,0 36.1,-12.383 41.07,-27.672 4.97,-15.281 -5.35,-27.668 -23.06,-27.668 -17.72,0 -36.11,12.387 -41.08,27.668"
         style="fill:#7a493f;fill-opacity:1;fill-rule:nonzero;stroke:none"
         id="path150" /><path
         d="m 8652.58,442.449 c -58.41,248.762 -194.77,425.449 -286.97,465.332 -5.82,2.52 -6.9,13.27 -1.39,14.489 73.16,16 290.14,37.73 419.98,-222.821 21.03,-42.168 -73.15,-2.207 -79.63,-75.429 -10.61,-120.11 -51.99,-181.571 -51.99,-181.571"
         style="fill:#e8ceaa;fill-opacity:1;fill-rule:nonzero;stroke:none"
         id="path152" /><path
         d="m 8270.36,167.012 -38.27,4.82 10.49,67.359 c -60.86,18.911 -86.83,71.071 -78.86,122.239 9,57.672 45.83,87.371 112.66,106.699 56.49,16.66 81.6,30.68 86.84,64.363 4.04,25.918 -8.94,57.938 -55.73,63.828 -6.7,0.84 -13.05,1.211 -19.04,1.211 -28.81,0 -49.39,-8.5 -60.94,-13.609 l -8.54,44.656 c 16.07,7.313 37.11,13.563 64.81,13.563 5.62,0 11.52,-0.262 17.72,-0.821 l 9.78,62.809 37.66,-4.731 -10.19,-65.386 c 54.39,-16.77 83.89,-62.114 75.51,-115.864 -8.77,-56.347 -51.69,-81.335 -117.7,-99.488 -48,-13.75 -75.13,-32.801 -80.68,-68.422 -5.74,-36.918 19.28,-67.168 62.42,-72.597 6.12,-0.77 12.23,-1.129 18.27,-1.129 27.52,0 53.64,7.488 73.57,17.988 l 7.82,-45.23 c -19.48,-11.079 -48.69,-17.829 -78.04,-17.829 -6.48,0 -12.97,0.329 -19.37,1.008 l -10.19,-65.437"
         style="fill:#9c7568;fill-opacity:1;fill-rule:nonzero;stroke:none"
         id="path154" /><path
         d="m 4805.68,3039.76 c 12.69,6.85 0.51,21.71 -27.9,15.2 -291.82,-66.94 -342.3,-283.45 -342.3,-283.45 0,0 68.38,-169.14 188.22,-111.78 0,0 95.04,333.12 181.98,380.03"
         style="fill:#cfb08a;fill-opacity:1;fill-rule:nonzero;stroke:none"
         id="path156" /><path
         d="m 4048.42,2394.92 1455.8,-273.76 c -40.93,295.92 -624.75,977.98 -712.03,927.45 -95.31,-55.18 -743.77,-653.69 -743.77,-653.69"
         style="fill:#ddc59e;fill-opacity:1;fill-rule:nonzero;stroke:none"
         id="path158" /><path
         d="m 4805.22,3051.1 c 120.64,-6.59 659.72,-645.98 699,-929.94 l -676.89,127.29 c 191.45,369.01 177.68,704.17 -22.11,802.65"
         style="fill:#cfb08a;fill-opacity:1;fill-rule:nonzero;stroke:none"
         id="path160" /><path
         d="m 4677.92,2618.13 -38.05,4.47 c 2.92,2.86 5.62,6.14 8.06,9.82 15.14,22.9 12.47,46.27 -2.41,77.17 -21.71,43.84 -29.3,80.83 -3.79,116.27 14.49,20.14 33.36,30.34 52.78,30.34 12.22,0 24.65,-4.03 36.34,-12.17 l 25.24,36.79 16.24,-17.6 -23.56,-34.96 c 15.36,-16.85 22.08,-33.37 25.44,-46.91 l -22.25,-17.92 c -2.62,9.79 -8.18,28.58 -25.72,45.71 -9.17,8.96 -18.16,12.54 -26.32,12.54 -11.39,0 -21.17,-6.98 -27.55,-16.09 -14.45,-20.65 -10.1,-41.29 6.69,-78.69 18.79,-41.24 20.59,-73.55 -1.14,-108.77 m -113.7,13.37 -50.71,5.96 c -1.77,3.96 -3.18,7.9 -4.19,11.75 l 31.46,24.45 c 4.13,-14.48 12,-29.69 23.44,-42.16"
         style="fill:#95705e;fill-opacity:1;fill-rule:nonzero;stroke:none"
         id="path162" /><path
         d="M 1387.81,48.5195 2441.78,207.211 c 0,0 -483.06,822.079 -684.41,866.809 C 1556.02,1118.76 1387.81,48.5195 1387.81,48.5195"
         style="fill:#cfb08a;fill-opacity:1;fill-rule:nonzero;stroke:none"
         id="path164" /><path
         d="m 1396.98,103.41 c 29.69,379.922 76.36,629.922 264.58,912.14 135.38,-7.96 323.83,-502.538 264.3,-886.019 L 1387.81,48.5195 c 0,0 6.43,19.8399 9.17,54.8905"
         style="fill:#ddc59e;fill-opacity:1;fill-rule:nonzero;stroke:none"
         id="path166" /><path
         d="m 1687.71,1055.69 c -2.59,17.17 10,33.3 28.1,36.03 18.11,2.73 34.88,-8.99 37.47,-26.15 2.58,-17.18 -10,-33.3 -28.1,-36.04 -18.11,-2.72 -34.89,8.99 -37.47,26.16"
         style="fill:#7f4f46;fill-opacity:1;fill-rule:nonzero;stroke:none"
         id="path168" /><path
         d="m 1966.88,426.031 c -7.98,16.438 -22.3,29.207 -42.96,40.301 -2.54,17.981 -5.4,35.84 -8.58,53.527 38.87,-15.711 66.76,-34.121 84.4,-59.48 l -32.86,-34.348 m -16.57,194.028 c -11.47,6.191 -32.5,16.89 -61.47,18.98 -9.02,33.84 -19.03,66.422 -29.82,97.32 l 9.42,0.11 12,-57.328 c 33.04,-0.809 57.43,-10.039 75.39,-19.911 l -5.52,-39.171"
         style="fill:#8c6553;fill-opacity:1;fill-rule:nonzero;stroke:none"
         id="path170" /><path
         d="m 1865,319.57 c -12.92,4.211 -24.75,9.649 -34.24,15.879 l 4.82,39.762 c 16.91,-10.441 38.35,-19.172 60.86,-22.781 L 1865,319.57 m 58.92,146.762 c -8.28,4.438 -17.58,8.609 -27.89,12.637 -60.69,23.062 -100.82,49.883 -111.57,101.312 -10.28,49.059 14.17,86.668 62.6,96.141 l -12.49,59.668 24.45,0.269 c 10.79,-30.898 20.8,-63.48 29.82,-97.32 -3.24,0.242 -6.57,0.359 -10.01,0.359 -0.52,0 -1.04,0 -1.57,-0.007 -42.09,-0.461 -52.24,-27.84 -47.3,-51.493 6.44,-30.738 29.88,-45.886 81.88,-66.636 1.18,-0.461 2.35,-0.93 3.5,-1.403 3.18,-17.687 6.04,-35.546 8.58,-53.527"
         style="fill:#95705e;fill-opacity:1;fill-rule:nonzero;stroke:none"
         id="path172" /><path
         d="m 1704.13,1060.53 c -14.1,2.69 -3.4,22.28 26.95,25.36 311.83,31.66 392.82,-174.781 392.82,-174.781 0,0 -48.67,-198.527 -180.67,-180.648 0,0 -142.65,311.609 -239.1,330.069"
         style="fill:#ddc59e;fill-opacity:1;fill-rule:nonzero;stroke:none"
         id="path174" /><path
         d="m 6491.17,3798.88 c 53.81,2.54 152.8,33.34 156.3,45.12 3.51,11.79 -18.89,35.3 -30.64,31.62 -65.41,-20.43 -118.09,-12.35 -158.23,-8.66 l 32.57,-68.08"
         style="fill:#f9a86f;fill-opacity:1;fill-rule:nonzero;stroke:none"
         id="path176" /><path
         d="m 6675.42,3695.37 c -45.64,26.28 -148.47,99.9 -158.09,106.46 -9.6,6.56 -37.31,-41.34 -35.59,-52.64 1.72,-11.28 137.76,-91.67 160.56,-98.61 22.79,-6.94 49.82,35.18 33.12,44.79"
         style="fill:#f9a86f;fill-opacity:1;fill-rule:nonzero;stroke:none"
         id="path178" /><path
         d="m 6625.7,3609.14 c -41.19,32.79 -131.83,120.93 -140.35,128.86 -8.51,7.92 -43.08,-35.32 -43.07,-46.75 0.01,-11.42 122.48,-111.21 143.97,-121.47 21.5,-10.27 54.53,27.35 39.45,39.36"
         style="fill:#f9a86f;fill-opacity:1;fill-rule:nonzero;stroke:none"
         id="path180" /><path
         d="m 6520.88,3569.85 c -33.12,38.26 -105.18,136.34 -111.97,145.25 -6.79,8.9 -38.11,-20.53 -38.67,-30.47 -0.56,-9.94 97.77,-125.67 115.4,-139.68 17.61,-14.01 47.35,10.9 35.24,24.9"
         style="fill:#f9a86f;fill-opacity:1;fill-rule:nonzero;stroke:none"
         id="path182" /><path
         d="m 6410.9,3636.19 c 91.58,-30.91 137.39,115.93 140.9,133.99 3.49,18.05 -86.95,95.16 -86.95,95.16 l -105.32,27.25 -84.52,-150.2 c 0,0 113.11,-98.51 135.89,-106.2"
         style="fill:#f9a86f;fill-opacity:1;fill-rule:nonzero;stroke:none"
         id="path184" /><path
         d="m 3666.32,4248.35 c -52.07,13.79 -142.35,64.76 -143.28,77.04 -0.94,12.28 25.93,30.6 36.65,24.53 59.63,-33.77 112.85,-36.93 152.88,-41.75 l -46.25,-59.82"
         style="fill:#f9a86f;fill-opacity:1;fill-rule:nonzero;stroke:none"
         id="path186" /><path
         d="m 3464.27,4185.7 c 50.19,16.15 166.31,66.63 177.09,71.04 10.78,4.4 27.75,-48.34 23.68,-59.03 -4.07,-10.7 -154.09,-60.83 -177.85,-62.83 -23.76,-2.01 -41.29,44.91 -22.92,50.82"
         style="fill:#f9a86f;fill-opacity:1;fill-rule:nonzero;stroke:none"
         id="path188" /><path
         d="m 3494.64,4090.8 c 47.22,23.46 154.49,90.73 164.5,96.7 10,5.97 34.65,-43.65 32.23,-54.83 -2.43,-11.19 -143.28,-83.17 -166.47,-88.71 -23.2,-5.53 -47.53,38.26 -30.26,46.84"
         style="fill:#f9a86f;fill-opacity:1;fill-rule:nonzero;stroke:none"
         id="path190" /><path
         d="m 3588.83,4030.29 c 40.48,30.52 131.68,111.42 140.2,118.71 8.53,7.3 32.92,-28.11 31.37,-37.96 -1.55,-9.85 -122.18,-102.52 -142.37,-112.54 -20.19,-10.02 -44,20.63 -29.2,31.79"
         style="fill:#f9a86f;fill-opacity:1;fill-rule:nonzero;stroke:none"
         id="path192" /><path
         d="m 3710.41,4072.14 c -96.09,-11.01 -109.83,142.42 -109.43,160.83 0.39,18.42 105.13,74.93 105.13,74.93 l 108.75,4.55 50.87,-164.86 c 0,0 -131.42,-72.7 -155.32,-75.45"
         style="fill:#f9a86f;fill-opacity:1;fill-rule:nonzero;stroke:none"
         id="path194" /><path
         d="m 5281.8,5355.92 c 36.24,73.99 45.3,146.86 20.23,162.76 -25.06,15.91 -74.75,-31.18 -110.98,-105.16 -36.24,-73.98 -45.31,-146.86 -20.25,-162.76 25.07,-15.9 74.76,31.18 111,105.16"
         style="fill:#8c362b;fill-opacity:1;fill-rule:nonzero;stroke:none"
         id="path196" /><path
         d="m 3952.89,4120.76 -107,254.93 -83.96,-42.66 58.29,-232.02 132.67,19.75"
         style="fill:#efd5a3;fill-opacity:1;fill-rule:nonzero;stroke:none"
         id="path198" /><path
         d="m 6328.7,3990.52 -120.13,-238.69 63.22,-41.1 151.76,184.95 -94.85,94.84"
         style="fill:#efd5a3;fill-opacity:1;fill-rule:nonzero;stroke:none"
         id="path200" /><path
         d="m 6503.96,1527.78 c 5.69,21.43 -24.29,47.98 -66.96,59.31 -42.66,11.32 -81.86,3.13 -87.56,-18.29 -5.68,-21.43 24.3,-47.97 66.97,-59.3 42.66,-11.33 81.86,-3.14 87.55,18.28"
         style="fill:#f7902d;fill-opacity:1;fill-rule:nonzero;stroke:none"
         id="path202" /><path
         d="m 6123.69,1844.07 c -2.24,22.05 -39.67,36.31 -83.58,31.85 -43.92,-4.47 -77.71,-25.97 -75.46,-48.02 2.24,-22.05 39.66,-36.31 83.58,-31.85 43.92,4.47 77.7,25.97 75.46,48.02"
         style="fill:#f7902d;fill-opacity:1;fill-rule:nonzero;stroke:none"
         id="path204" /><path
         d="m 6916.46,1096.69 c -1.91,18.7 -37.11,30.42 -78.63,26.18 -41.51,-4.23 -73.62,-22.82 -71.72,-41.51 1.91,-18.69 37.11,-30.42 78.63,-26.18 41.51,4.23 73.62,22.82 71.72,41.51"
         style="fill:#f7902d;fill-opacity:1;fill-rule:nonzero;stroke:none"
         id="path206" /><path
         d="m 2561.33,3223.25 c 0,0 293.3,42.15 421.3,-47.71 l 55.85,165.23 c -142.26,109.39 -406.55,102.92 -515.51,74.32 l 38.36,-191.84"
         style="fill:#98a43b;fill-opacity:1;fill-rule:nonzero;stroke:none"
         id="path208" /><path
         d="m 2863.64,3301.15 c 5.79,28.19 -19,58 -55.37,66.58 -36.38,8.58 -70.57,-7.32 -76.37,-35.51 -5.79,-28.2 19,-58 55.38,-66.58 36.38,-8.58 70.57,7.32 76.36,35.51"
         style="fill:#b5bb3d;fill-opacity:1;fill-rule:nonzero;stroke:none"
         id="path210" /><path
         d="m 6408.31,2412.69 c 0,0 -223.14,-194.97 -379.43,-189.21 l 43.05,-169.02 c 178.88,-14.36 397.1,134.86 472.95,218.14 l -136.57,140.09"
         style="fill:#98a43b;fill-opacity:1;fill-rule:nonzero;stroke:none"
         id="path212" /><path
         d="m 6349.14,2218.19 c -8.97,27.35 -45.3,40.9 -81.13,30.27 -35.84,-10.64 -57.61,-41.43 -48.63,-68.77 8.97,-27.35 45.3,-40.89 81.14,-30.26 35.83,10.63 57.61,41.42 48.62,68.76"
         style="fill:#b5bb3d;fill-opacity:1;fill-rule:nonzero;stroke:none"
         id="path214" /><path
         d="m 6971.7,2118.06 c 0,0 -36.38,-294.07 -156.71,-393.97 l 144.76,-97.28 c 142.92,108.53 206.1,365.23 207.13,477.88 l -195.18,13.37"
         style="fill:#98a43b;fill-opacity:1;fill-rule:nonzero;stroke:none"
         id="path216" /><path
         d="m 7057.24,1933.64 c -24.92,14.41 -61.03,0.29 -80.65,-31.52 -19.63,-31.82 -15.33,-69.28 9.59,-83.68 24.92,-14.4 61.03,-0.29 80.66,31.53 19.62,31.82 15.32,69.28 -9.6,83.67"
         style="fill:#b5bb3d;fill-opacity:1;fill-rule:nonzero;stroke:none"
         id="path218" /><path
         d="m 6129.2,5559.43 c 0,0 -150.26,-255.39 -300.38,-299.23 l 94.17,-146.82 c 174.28,42.8 334.29,253.25 379.99,356.21 l -173.78,89.84"
         style="fill:#98a43b;fill-opacity:1;fill-rule:nonzero;stroke:none"
         id="path220" /><path
         d="m 6134.4,5356.21 c -17.14,23.12 -55.89,24.51 -86.54,3.12 -30.65,-21.4 -41.6,-57.48 -24.46,-80.6 17.15,-23.11 55.9,-24.51 86.54,-3.11 30.66,21.39 41.6,57.47 24.46,80.59"
         style="fill:#b5bb3d;fill-opacity:1;fill-rule:nonzero;stroke:none"
         id="path222" /><path
         d="m 4417.75,4967.67 c 0,0 -280.86,-66.38 -412.85,9.67 l -39.81,-165.14 c 147.52,-93.75 403.34,-64.51 506.55,-27.3 l -53.89,182.77"
         style="fill:#98a43b;fill-opacity:1;fill-rule:nonzero;stroke:none"
         id="path224" /><path
         d="m 4286.03,4828.06 c 8,26.87 -13.54,57.88 -48.11,69.27 -34.58,11.4 -69.09,-1.14 -77.09,-28.01 -8,-26.86 13.54,-57.88 48.11,-69.27 34.58,-11.4 69.09,1.15 77.09,28.01"
         style="fill:#b5bb3d;fill-opacity:1;fill-rule:nonzero;stroke:none"
         id="path226" /><path
         d="m 7143.43,4027.15 c 0,0 -220.28,186.46 -237.53,337.81 l -156.49,-66.1 c 12.25,-174.36 187.77,-362.75 279.03,-423.65 l 114.99,151.94"
         style="fill:#98a43b;fill-opacity:1;fill-rule:nonzero;stroke:none"
         id="path228" /><path
         d="m 6952.87,4050.14 c 26.36,9.53 38.51,45.28 27.13,79.86 -11.38,34.58 -41.97,54.89 -68.34,45.36 -26.36,-9.53 -38.51,-45.29 -27.13,-79.86 11.38,-34.58 41.97,-54.89 68.34,-45.36"
         style="fill:#b5bb3d;fill-opacity:1;fill-rule:nonzero;stroke:none"
         id="path230" /><path
         d="m 5821.79,3741.67 c 0,0 -264.43,-115.63 -407.9,-64.45 l -9.58,-169.61 c 161.93,-65.8 408.38,8.8 503.24,63.91 l -85.76,170.15"
         style="fill:#98a43b;fill-opacity:1;fill-rule:nonzero;stroke:none"
         id="path232" /><path
         d="m 5717.22,3580.72 c 3.05,27.87 -23.69,54.52 -59.75,59.53 -36.05,5.02 -67.76,-13.51 -70.82,-41.37 -3.07,-27.86 23.69,-54.51 59.75,-59.53 36.05,-5.01 67.76,13.51 70.82,41.37"
         style="fill:#b5bb3d;fill-opacity:1;fill-rule:nonzero;stroke:none"
         id="path234" /><path
         d="m 3740.51,4010.36 c 0,0 -243.5,50.92 -318.7,158.56 l -91.48,-114.34 c 80.85,-127.13 291.22,-197.89 385.39,-206.59 l 24.79,162.37"
         style="fill:#98a43b;fill-opacity:1;fill-rule:nonzero;stroke:none"
         id="path236" /><path
         d="m 3586.64,3949.57 c 16.07,18.04 10.6,50.13 -12.22,71.67 -22.82,21.53 -54.35,24.37 -70.42,6.33 -16.07,-18.04 -10.6,-50.13 12.22,-71.67 22.82,-21.54 54.34,-24.38 70.42,-6.33"
         style="fill:#b5bb3d;fill-opacity:1;fill-rule:nonzero;stroke:none"
         id="path238" /><path
         d="m 6261.87,2733.63 c 0,0 -296.21,8.24 -407.09,118.51 l -83.08,-153.36 c 121.64,-131.93 383.19,-170.41 495.42,-160.71 l -5.25,195.56"
         style="fill:#98a43b;fill-opacity:1;fill-rule:nonzero;stroke:none"
         id="path240" /><path
         d="m 6094.34,2629.85 c 15.03,24.55 1.83,61.01 -29.47,81.44 -31.3,20.42 -68.85,17.08 -83.88,-7.46 -15.02,-24.55 -1.83,-61.01 29.47,-81.44 31.3,-20.42 68.86,-17.08 83.88,7.46"
         style="fill:#b5bb3d;fill-opacity:1;fill-rule:nonzero;stroke:none"
         id="path242" /><path
         d="m 2851.4,2167.87 c 0,0 -279.12,-99.45 -422.39,-36.76 l -21.98,-173.01 c 161.13,-79.02 418.89,-20.29 520.01,29.35 l -75.64,180.42"
         style="fill:#98a43b;fill-opacity:1;fill-rule:nonzero;stroke:none"
         id="path244" /><path
         d="m 3829.74,4377.65 c 328.79,233.94 825.5,561.91 903.48,582.95 77.98,21.04 -26.35,-579.64 -140.17,-633.38 -113.81,-53.74 -731.7,-230.95 -731.7,-230.95 l -31.61,281.38"
         style="fill:#3a2733;fill-opacity:1;fill-rule:nonzero;stroke:none"
         id="path246" /><path
         d="m 3846.2,4231.1 15.15,-134.83 c 0,0 622.79,155.66 736.6,209.4 41.02,19.38 75.86,131.43 106.33,238.18 -215.03,-83.61 -720.25,-263.74 -858.08,-312.75"
         style="fill:#32212c;fill-opacity:1;fill-rule:nonzero;stroke:none"
         id="path248" /><path
         d="M 1261.45,0 H 7990 l -877.64,597.57 -470.16,757.62 -292.54,224.1 -459.72,896.35 L 4437.66,2646.38 3779.43,2379.6 3257.03,2208.87 2755.52,1557.95 2327.15,981.719 2233.12,704.281 1783.85,234.762 1261.45,0"
         style="fill:#f9b02d;fill-opacity:1;fill-rule:nonzero;stroke:none"
         id="path250" /><path
         d="M 3401.05,24.4492 C 4414.1,669.359 5057.39,1699.37 5070.21,2572.01 L 4437.66,2646.38 3779.43,2379.6 3257.03,2208.87 2755.52,1557.95 2327.15,981.719 2233.12,704.281 1783.85,234.762 1261.45,0 h 2099.68 c 13.29,8.25 26.64,16.0117 39.92,24.4492"
         style="fill:#fabc2b;fill-opacity:1;fill-rule:nonzero;stroke:none"
         id="path252" /><path
         d="M 6017.74,1642.91 6190.32,1573.96 6414.95,520.199 6897.99,0 H 7990 l -877.64,597.57 -470.16,757.62 -292.54,224.1 -459.72,896.34 -833.26,97.97 391.83,-185.99 569.23,-744.7"
         style="fill:#f7902d;fill-opacity:1;fill-rule:nonzero;stroke:none"
         id="path254" /><path
         d="m 3888.05,3634.86 c -68.96,-271.56 94.84,-885.21 170.71,-1068.58 h 18.97 l 295.07,815.66 406.78,29.51 90.63,-54.8 756.65,-1315.17 14.74,4.21 -90.62,1677.69 -575.39,379.37 -467.89,-6.32 c 0,0 -609.21,-420.46 -619.65,-461.57"
         style="fill:#2e1e27;fill-opacity:1;fill-rule:nonzero;stroke:none"
         id="path256" /><path
         d="m 4892.02,3318.75 144.69,69.52 c -137.17,29.37 -245.9,71.24 -303.54,135.58 l -550.05,14.06 -106.21,-971.63 h 0.82 l 295.08,815.66 406.77,29.51 90.63,-54.8 21.81,-37.9"
         style="fill:#251820;fill-opacity:1;fill-rule:nonzero;stroke:none"
         id="path258" /><path
         d="m 4912.36,3944.68 c 78.51,-191.22 240.95,-404.78 415.36,-650.95 l 312.7,-1226 -89.44,1655.65 -575.39,379.37 -467.89,-6.32 c 0,0 -138.87,-95.85 -285.13,-200.48 254.33,0.37 488.1,-6.54 689.79,48.73"
         style="fill:#251820;fill-opacity:1;fill-rule:nonzero;stroke:none"
         id="path260" /><path
         d="m 5133.82,4090.91 -325.63,138.3 -65.12,-173.1 c 123.9,-9.54 236.66,-46.53 325.62,-138.29 l 65.13,173.09"
         style="fill:#c6a773;fill-opacity:1;fill-rule:nonzero;stroke:none"
         id="path262" /><path
         d="m 4313.26,3969.98 c 286.64,-21.08 637.04,101.16 637.04,101.16 0,0 432.5,-807.62 634.7,-977.59 35.53,-29.86 161.99,1504.5 149.35,1546.66 -12.65,42.15 -387.82,438.38 -438.39,442.6 -50.59,4.22 -510.06,-59.02 -615.44,-155.97 -105.38,-96.95 -168.61,-712.38 -172.82,-800.9 l -194.44,-155.96"
         style="fill:#3a2733;fill-opacity:1;fill-rule:nonzero;stroke:none"
         id="path264" /><path
         d="m 4562.48,4559.68 c -33.41,-188.67 -52.53,-386.43 -54.78,-433.74 l -194.44,-155.96 c 1.14,-0.09 2.28,-0.17 3.42,-0.25 169.17,-11.75 301.9,131.76 285.86,300.58 -5.73,60.32 -33.2,178.63 -40.06,289.37"
         style="fill:#32212c;fill-opacity:1;fill-rule:nonzero;stroke:none"
         id="path266" /><path
         d="m 5734.35,4640.21 c -5.17,17.21 -204.96,13.47 -212.87,-21.08 -155.97,-680.77 -34.75,-1442.98 63.52,-1525.58 35.53,-29.86 161.99,1504.5 149.35,1546.66"
         style="fill:#32212c;fill-opacity:1;fill-rule:nonzero;stroke:none"
         id="path268" /><path
         d="m 5000.88,4452.62 c 0,0 372.98,234.05 550.03,400.75 -101.09,112.46 -225.76,233.51 -252.85,235.76 -32.3,2.7 -233.31,-28.47 -400.38,-71.98 5.34,-270.88 103.2,-564.53 103.2,-564.53"
         style="fill:#efd5a3;fill-opacity:1;fill-rule:nonzero;stroke:none"
         id="path270" /><path
         d="m 5298.06,5089.13 c -26.62,2.22 -167.94,-18.6 -310.36,-50.36 50.44,-56.01 179.08,-105.31 333.64,-121.69 61.84,-6.56 120.63,-7 172.97,-2.46 -86.51,91.2 -174.08,172.67 -196.25,174.51"
         style="fill:#debc87;fill-opacity:1;fill-rule:nonzero;stroke:none"
         id="path272" /><path
         d="m 5099.68,5060.68 52.96,87.46 241.59,75.28 -15.39,-200.97 c 0,0 -199.07,-39.75 -279.16,38.23"
         style="fill:#f2634e;fill-opacity:1;fill-rule:nonzero;stroke:none"
         id="path274" /><path
         d="m 5104.92,5131.96 c 45.49,-48.33 176.86,-43.49 213.7,-26.51 36.86,16.98 103.68,162.53 110.75,237.73 7.07,75.2 -18.66,147.97 -75.92,162.53 -31.88,8.1 -109.13,-13.49 -193.4,-164.96 -45.22,-81.27 -69.35,-193.68 -55.13,-208.79"
         style="fill:#f9a86f;fill-opacity:1;fill-rule:nonzero;stroke:none"
         id="path276" /><path
         d="m 5662.36,4732.53 c 241.71,-236 716.92,-772.04 716.92,-772.04 L 6218.05,3729.7 c 0,0 -595.18,367.28 -673.85,422.93 -129.62,91.68 -33.74,728.21 118.16,579.9"
         style="fill:#3a2733;fill-opacity:1;fill-rule:nonzero;stroke:none"
         id="path278" /><path
         d="m 5508.37,4323.35 c -9.4,6.65 -17.48,16.45 -24.58,28.34 2.3,-91.93 14.89,-182.95 54.54,-211 78.67,-55.64 679.72,-410.99 679.72,-410.99 l 71.22,101.94 c -210.56,131.01 -718.72,447.73 -780.9,491.71"
         style="fill:#32212c;fill-opacity:1;fill-rule:nonzero;stroke:none"
         id="path280" /><path
         d="m 5756.48,1850.21 c -109.08,45.84 -173.33,169.43 -138.72,207.07 40.71,44.27 124.49,-91.67 138.72,-207.07"
         style="fill:#f0c98c;fill-opacity:1;fill-rule:nonzero;stroke:none"
         id="path282" /><path
         d="m 4473.97,2646.38 -370.94,-134.9 -180.21,-161.75 540.61,197.58 516.63,38.5 -506.09,60.57"
         style="fill:#f7902d;fill-opacity:1;fill-rule:nonzero;stroke:none"
         id="path284" /><path
         d="m 3922.82,2349.73 c 120.69,76.84 196.01,159.64 196.01,159.64 0,0 -33.19,83.78 -52.16,88.53 -18.97,4.74 -143.85,-248.17 -143.85,-248.17"
         style="fill:#f0c98c;fill-opacity:1;fill-rule:nonzero;stroke:none"
         id="path286" /><path
         d="m 2724.48,2027.15 c -3.06,28.62 -35.75,49.47 -73.01,46.57 -37.27,-2.9 -65,-28.46 -61.93,-57.07 3.06,-28.61 35.74,-49.46 73.01,-46.56 37.26,2.9 64.98,28.45 61.93,57.06"
         style="fill:#b5bb3d;fill-opacity:1;fill-rule:nonzero;stroke:none"
         id="path288" /><path
         d="m 3556.97,2714.53 c 0,0 -296.2,8.23 -407.09,118.51 l -83.08,-153.36 c 121.65,-131.95 383.2,-170.41 495.43,-160.72 l -5.26,195.57"
         style="fill:#98a43b;fill-opacity:1;fill-rule:nonzero;stroke:none"
         id="path290" /><path
         d="m 3373.37,2617.21 c 15.03,24.55 1.84,61 -29.46,81.43 -31.3,20.42 -68.86,17.08 -83.89,-7.46 -15.02,-24.55 -1.83,-61 29.47,-81.43 31.3,-20.42 68.86,-17.08 83.88,7.46"
         style="fill:#b5bb3d;fill-opacity:1;fill-rule:nonzero;stroke:none"
         id="path292" /><path
         d="m 3153.16,5598.9 c 0,0 -220.9,-197.49 -377.25,-193.53 l 44.98,-168.51 c 179.04,-12.32 395.54,139.39 470.43,223.53 l -138.16,138.51"
         style="fill:#98a43b;fill-opacity:1;fill-rule:nonzero;stroke:none"
         id="path294" /><path
         d="m 3086.59,5402.05 c -5.94,28.16 -40.57,45.59 -77.35,38.94 -36.78,-6.66 -61.77,-34.88 -55.83,-63.04 5.94,-28.16 40.57,-45.59 77.35,-38.94 36.78,6.66 61.77,34.88 55.83,63.04"
         style="fill:#b5bb3d;fill-opacity:1;fill-rule:nonzero;stroke:none"
         id="path296" /><path
         d="m 6617.74,1173.54 c -10.64,16.9 -53.24,9.2 -95.16,-17.19 -41.92,-26.4 -67.27,-61.49 -56.63,-78.39 10.64,-16.9 53.25,-9.2 95.16,17.2 41.92,26.39 67.27,61.48 56.63,78.38"
         style="fill:#fab93c;fill-opacity:1;fill-rule:nonzero;stroke:none"
         id="path298" /><path
         d="m 6920.53,856.172 c -2.16,19.859 -43.84,31.59 -93.08,26.219 -49.24,-5.371 -87.4,-25.809 -85.24,-45.661 2.17,-19.859 43.84,-31.589 93.07,-26.218 49.25,5.367 87.42,25.808 85.25,45.66"
         style="fill:#fab93c;fill-opacity:1;fill-rule:nonzero;stroke:none"
         id="path300" /><path
         d="m 6042.36,897.102 c -6.1,19.007 -49.27,22.148 -96.44,7.007 -47.16,-15.148 -80.44,-42.828 -74.34,-61.839 6.11,-19.02 49.28,-22.149 96.45,-7.02 47.16,15.148 80.45,42.84 74.33,61.852"
         style="fill:#fcd14f;fill-opacity:1;fill-rule:nonzero;stroke:none"
         id="path302" /><path
         d="m 6455.45,713.539 c -0.9,19.953 -41.74,34.313 -91.22,32.082 -49.48,-2.219 -88.87,-20.199 -87.97,-40.152 0.9,-19.949 41.74,-34.321 91.22,-32.078 49.48,2.23 88.87,20.187 87.97,40.148"
         style="fill:#f9b02d;fill-opacity:1;fill-rule:nonzero;stroke:none"
         id="path304" /><path
         d="m 5026.49,1457.74 c -11.23,34.96 -58.56,51.02 -105.72,35.87 -47.16,-15.14 -76.29,-55.76 -65.07,-90.71 11.23,-34.96 58.56,-51.02 105.72,-35.87 47.16,15.15 76.3,55.76 65.07,90.71"
         style="fill:#fcd14f;fill-opacity:1;fill-rule:nonzero;stroke:none"
         id="path306" /><path
         d="m 3719.75,1950.93 c -6.11,19 -49.29,22.15 -96.45,7 -47.16,-15.15 -80.45,-42.83 -74.34,-61.85 6.1,-19.01 49.28,-22.14 96.44,-7 47.16,15.14 80.45,42.83 74.35,61.85"
         style="fill:#fcd14f;fill-opacity:1;fill-rule:nonzero;stroke:none"
         id="path308" /><path
         d="m 5894.83,1660.07 c -6.1,19.01 -49.28,22.15 -96.44,7 -47.17,-15.14 -80.45,-42.83 -74.35,-61.85 6.11,-19 49.29,-22.14 96.45,-7 47.17,15.15 80.45,42.83 74.34,61.85"
         style="fill:#fcd14f;fill-opacity:1;fill-rule:nonzero;stroke:none"
         id="path310" /><path
         d="m 4293.02,2178.54 c -6.1,19.02 -49.28,22.15 -96.44,7.02 -47.17,-15.15 -80.45,-42.84 -74.34,-61.85 6.1,-19.01 49.28,-22.15 96.44,-7 47.17,15.14 80.45,42.83 74.34,61.83"
         style="fill:#fcd14f;fill-opacity:1;fill-rule:nonzero;stroke:none"
         id="path312" /><path
         d="m 5556.61,1355.04 c 7.38,18.55 -23.95,48.43 -69.99,66.72 -46.02,18.3 -89.32,18.08 -96.7,-0.47 -7.37,-18.56 23.96,-48.43 69.99,-66.72 46.04,-18.3 89.33,-18.09 96.7,0.47"
         style="fill:#fcd14f;fill-opacity:1;fill-rule:nonzero;stroke:none"
         id="path314" /><path
         d="m 3815.43,1150.55 c 7.37,18.55 -23.96,48.42 -69.99,66.72 -46.04,18.3 -89.33,18.08 -96.7,-0.47 -7.38,-18.56 23.96,-48.43 69.99,-66.73 46.03,-18.29 89.32,-18.09 96.7,0.48"
         style="fill:#fcd14f;fill-opacity:1;fill-rule:nonzero;stroke:none"
         id="path316" /><path
         d="m 3231.87,1702.58 c -7.76,21.42 -51.81,25.11 -98.37,8.23 -46.58,-16.87 -78.04,-47.92 -70.27,-69.34 7.76,-21.42 51.8,-25.1 98.37,-8.23 46.57,16.88 78.03,47.92 70.27,69.34"
         style="fill:#fcd14f;fill-opacity:1;fill-rule:nonzero;stroke:none"
         id="path318" /><path
         d="m 3065.29,1120.25 c -10.07,26.24 -55.72,33.12 -101.96,15.37 -46.24,-17.77 -75.56,-53.43 -65.49,-79.67 10.08,-26.24 55.73,-33.12 101.97,-15.36 46.24,17.76 75.56,53.42 65.48,79.66"
         style="fill:#fcd14f;fill-opacity:1;fill-rule:nonzero;stroke:none"
         id="path320" /><path
         d="m 5050.79,2362.48 c 9.91,24.93 -19.36,59.98 -65.4,78.27 -46.03,18.3 -91.38,12.92 -101.29,-12.02 -9.92,-24.93 19.36,-59.98 65.39,-78.28 46.03,-18.29 91.39,-12.91 101.3,12.03"
         style="fill:#fcd14f;fill-opacity:1;fill-rule:nonzero;stroke:none"
         id="path322" /><path
         d="m 4804.13,983.012 c -0.83,19.948 -41.62,34.448 -91.11,32.378 -49.49,-2.06 -88.94,-19.898 -88.11,-39.851 0.83,-19.949 41.62,-34.457 91.12,-32.398 49.49,2.07 88.93,19.918 88.1,39.871"
         style="fill:#fcd14f;fill-opacity:1;fill-rule:nonzero;stroke:none"
         id="path324" /><path
         d="m 3847.26,717.441 c -0.83,19.95 -41.62,34.45 -91.11,32.387 -49.49,-2.058 -88.94,-19.906 -88.11,-39.859 0.83,-19.949 41.62,-34.449 91.12,-32.387 49.49,2.07 88.94,19.91 88.1,39.859"
         style="fill:#fcd14f;fill-opacity:1;fill-rule:nonzero;stroke:none"
         id="path326" /><path
         d="m 5398.49,793.309 c -1.51,36.242 -42.85,63.953 -92.34,61.89 -49.49,-2.07 -88.39,-33.117 -86.88,-69.359 1.51,-36.238 42.85,-63.961 92.34,-61.879 49.49,2.059 88.39,33.109 86.88,69.348"
         style="fill:#fcd14f;fill-opacity:1;fill-rule:nonzero;stroke:none"
         id="path328" /><path
         d="m 4374.18,1261.21 c -0.83,19.95 -41.63,34.45 -91.12,32.39 -49.49,-2.06 -88.94,-19.91 -88.11,-39.86 0.83,-19.95 41.63,-34.44 91.11,-32.38 49.5,2.06 88.95,19.9 88.12,39.85"
         style="fill:#fcd14f;fill-opacity:1;fill-rule:nonzero;stroke:none"
         id="path330" /><path
         d="m 4835.8,1759.71 c 7.38,18.55 -23.96,48.42 -69.99,66.72 -46.03,18.3 -89.33,18.08 -96.7,-0.47 -7.38,-18.56 23.96,-48.43 69.99,-66.73 46.03,-18.29 89.32,-18.09 96.7,0.48"
         style="fill:#fcd14f;fill-opacity:1;fill-rule:nonzero;stroke:none"
         id="path332" /><path
         d="m 4066.19,1705.02 c -15.97,22.56 -61.68,17.65 -102.11,-10.98 -40.43,-28.61 -60.26,-70.1 -44.29,-92.66 15.96,-22.56 61.68,-17.65 102.11,10.97 40.43,28.62 60.26,70.11 44.29,92.67"
         style="fill:#fcd14f;fill-opacity:1;fill-rule:nonzero;stroke:none"
         id="path334" /><path
         d="m 4353.22,559.582 c -11.22,34.949 -58.55,51.02 -105.71,35.867 -47.17,-15.148 -76.3,-55.758 -65.07,-90.707 11.22,-34.961 58.55,-51.023 105.71,-35.871 47.17,15.141 76.3,55.758 65.07,90.711"
         style="fill:#fcd14f;fill-opacity:1;fill-rule:nonzero;stroke:none"
         id="path336" /><path
         d="m 4883.35,456.871 c 7.37,18.559 -23.96,48.43 -70,66.719 -46.03,18.301 -89.32,18.09 -96.69,-0.469 -7.38,-18.551 23.96,-48.422 69.99,-66.711 46.03,-18.301 89.32,-18.09 96.7,0.461"
         style="fill:#fcd14f;fill-opacity:1;fill-rule:nonzero;stroke:none"
         id="path338" /><path
         d="m 3142.16,252.379 c 7.38,18.562 -23.96,48.43 -69.99,66.723 -46.03,18.296 -89.33,18.089 -96.7,-0.473 -7.38,-18.547 23.95,-48.418 69.99,-66.731 46.03,-18.289 89.32,-18.078 96.7,0.481"
         style="fill:#fcd14f;fill-opacity:1;fill-rule:nonzero;stroke:none"
         id="path340" /><path
         d="m 4411.11,197.609 c -0.83,19.95 -41.62,34.45 -91.11,32.391 -49.49,-2.059 -88.94,-19.91 -88.11,-39.848 0.83,-19.953 41.63,-34.461 91.12,-32.402 49.49,2.059 88.93,19.91 88.1,39.859"
         style="fill:#fcd14f;fill-opacity:1;fill-rule:nonzero;stroke:none"
         id="path342" /><path
         d="m 2409.56,312 c -0.83,19.949 -41.62,34.461 -91.11,32.379 -49.49,-2.059 -88.94,-19.899 -88.11,-39.848 0.83,-19.949 41.62,-34.449 91.12,-32.39 49.49,2.058 88.93,19.91 88.1,39.859"
         style="fill:#fcd14f;fill-opacity:1;fill-rule:nonzero;stroke:none"
         id="path344" /><path
         d="m 5812.34,278.121 c -1.51,36.238 -42.85,63.938 -92.34,61.879 -49.49,-2.059 -88.39,-33.121 -86.87,-69.359 1.5,-36.243 42.85,-63.942 92.33,-61.879 49.49,2.058 88.39,33.109 86.88,69.359"
         style="fill:#fcd14f;fill-opacity:1;fill-rule:nonzero;stroke:none"
         id="path346" /><path
         d="m 7187.29,339.109 c -0.91,21.891 -41.77,37.961 -91.26,35.903 -49.5,-2.063 -88.87,-21.473 -87.96,-43.371 0.91,-21.891 41.76,-37.969 91.26,-35.903 49.49,2.063 88.86,21.481 87.96,43.371"
         style="fill:#f9b02d;fill-opacity:1;fill-rule:nonzero;stroke:none"
         id="path348" /><path
         d="m 6269.61,483.73 c -0.91,21.891 -41.77,37.969 -91.26,35.911 -49.49,-2.059 -88.87,-21.493 -87.96,-43.371 0.91,-21.899 41.77,-37.969 91.26,-35.911 49.49,2.063 88.87,21.493 87.96,43.371"
         style="fill:#fcd14f;fill-opacity:1;fill-rule:nonzero;stroke:none"
         id="path350" /><path
         d="m 6779.61,273.742 c -1.5,36.238 -42.85,63.949 -92.34,61.879 -49.5,-2.07 -88.39,-33.121 -86.88,-69.359 1.51,-36.242 42.85,-63.953 92.34,-61.891 49.5,2.078 88.39,33.129 86.88,69.371"
         style="fill:#f9b02d;fill-opacity:1;fill-rule:nonzero;stroke:none"
         id="path352" /><path
         d="m 3700.9,363.051 c -0.83,19.949 -41.62,34.449 -91.11,32.39 -49.49,-2.062 -88.94,-19.91 -88.11,-39.859 0.83,-19.961 41.63,-34.453 91.12,-32.391 49.49,2.059 88.93,19.911 88.1,39.86"
         style="fill:#fcd14f;fill-opacity:1;fill-rule:nonzero;stroke:none"
         id="path354" /><path
         d="m 3392.93,806.859 c -15.97,22.551 -61.69,17.641 -102.12,-10.98 -40.43,-28.609 -60.26,-70.109 -44.3,-92.668 15.97,-22.563 61.69,-17.641 102.12,10.98 40.43,28.61 60.26,70.11 44.3,92.668"
         style="fill:#fcd14f;fill-opacity:1;fill-rule:nonzero;stroke:none"
         id="path356" /><path
         d="m 2729.95,790.301 c -15.97,22.558 -61.69,17.648 -102.12,-10.969 -40.43,-28.621 -60.26,-70.113 -44.29,-92.672 15.97,-22.558 61.68,-17.648 102.11,10.981 40.43,28.609 60.26,70.097 44.3,92.66"
         style="fill:#fcd14f;fill-opacity:1;fill-rule:nonzero;stroke:none"
         id="path358" /><path
         d="m 3790.41,2286.61 c 7.37,18.56 -23.96,48.43 -69.99,66.73 -46.03,18.3 -89.33,18.09 -96.7,-0.47 -7.38,-18.55 23.96,-48.43 69.99,-66.73 46.03,-18.29 89.32,-18.08 96.7,0.47"
         style="fill:#fcd14f;fill-opacity:1;fill-rule:nonzero;stroke:none"
         id="path360" /><path
         d="m 6271.07,1271.03 c 1.14,30.81 -38.06,57.28 -87.56,59.11 -49.5,1.83 -90.55,-21.66 -91.69,-52.48 -1.15,-30.82 38.05,-57.29 87.56,-59.12 49.5,-1.83 90.54,21.67 91.69,52.49"
         style="fill:#fab93c;fill-opacity:1;fill-rule:nonzero;stroke:none"
         id="path362" /><path
         d="m 4523.5,4186.53 -11.06,-79.03 c 159.65,4.74 218.14,52.16 218.14,52.16 0,0 -180.2,-12.64 -207.08,26.87"
         style="fill:#32212c;fill-opacity:1;fill-rule:nonzero;stroke:none"
         id="path364" /><path
         d="m 4993.51,4444.19 c 0,0 37.9,27.59 85.51,58.77 l 86.26,497.65 -203.23,-411.44 c 20.91,-82.71 31.46,-144.98 31.46,-144.98"
         style="fill:#a73c74;fill-opacity:1;fill-rule:nonzero;stroke:none"
         id="path366" /><path
         d="m 5069.39,5060.68 56.9,-82.2 38.99,22.13 30.03,-44.26 211.57,46.56 -25.68,50.4 c -127.53,-33.87 -227.14,-35.89 -269.19,27.74 l -42.62,-20.37"
         style="fill:#e8c695;fill-opacity:1;fill-rule:nonzero;stroke:none"
         id="path368" /><path
         d="m 5148.42,4947.92 -11.59,41.1 34.77,29.5 10.55,-42.76 -33.73,-27.84"
         style="fill:#a73c74;fill-opacity:1;fill-rule:nonzero;stroke:none"
         id="path370" /><path
         d="m 4972.43,4173.1 c 0,18.77 -9.55,33.98 -21.34,33.98 -11.79,0 -21.34,-15.21 -21.34,-33.98 0,-18.77 9.55,-33.99 21.34,-33.99 11.79,0 21.34,15.22 21.34,33.99"
         style="fill:#5b3f53;fill-opacity:1;fill-rule:nonzero;stroke:none"
         id="path372" /><path
         d="m 4986.66,4318.53 c 0,18.76 -9.56,33.98 -21.34,33.98 -11.79,0 -21.35,-15.22 -21.35,-33.98 0,-18.77 9.56,-33.99 21.35,-33.99 11.78,0 21.34,15.22 21.34,33.99"
         style="fill:#5b3f53;fill-opacity:1;fill-rule:nonzero;stroke:none"
         id="path374" /><path
         d="m 3947.06,4262.41 c 0,17.17 -13.21,31.09 -29.51,31.09 -16.29,0 -29.5,-13.92 -29.5,-31.09 0,-17.17 13.21,-31.09 29.5,-31.09 16.3,0 29.51,13.92 29.51,31.09"
         style="fill:#debc87;fill-opacity:1;fill-rule:nonzero;stroke:none"
         id="path376" /><path
         d="m 4050.34,4285.59 c 0,17.17 -13.22,31.09 -29.51,31.09 -16.3,0 -29.51,-13.92 -29.51,-31.09 0,-17.17 13.21,-31.08 29.51,-31.08 16.29,0 29.51,13.91 29.51,31.08"
         style="fill:#debc87;fill-opacity:1;fill-rule:nonzero;stroke:none"
         id="path378" /><path
         d="m 6159.96,3906.89 c -13.75,-10.27 -17,-29.18 -7.25,-42.24 9.75,-13.06 28.8,-15.32 42.56,-5.05 13.76,10.28 17.01,29.19 7.26,42.25 -9.75,13.05 -28.81,15.31 -42.57,5.04"
         style="fill:#debc87;fill-opacity:1;fill-rule:nonzero;stroke:none"
         id="path380" /><path
         d="m 6079.6,3975.77 c -13.76,-10.27 -17,-29.18 -7.26,-42.24 9.75,-13.06 28.81,-15.32 42.57,-5.04 13.75,10.26 17,29.18 7.26,42.24 -9.76,13.05 -28.81,15.31 -42.57,5.04"
         style="fill:#debc87;fill-opacity:1;fill-rule:nonzero;stroke:none"
         id="path382" /><path
         d="m 5386.44,5121.73 2.9,89.95 -19.62,39.74 c 0,0 54.8,107.49 42.16,149.64 -12.65,42.16 -23.64,83.99 -56.91,93.8 -33.28,9.79 -66.79,-4.3 -66.79,-4.3 0,0 -77.58,86.49 10.93,85.44 88.53,-1.06 225.52,-87.47 196.02,-189.69 0,0 79.8,-33.86 -108.69,-264.58"
         style="fill:#8c362b;fill-opacity:1;fill-rule:nonzero;stroke:none"
         id="path384" /><path
         d="m 5287.89,5097.71 c -45.26,1.76 -44.36,53.86 -8.01,61.76 36.36,7.91 95.5,103.61 95.5,103.61 l 23.85,-37.22 c 0,0 -44.39,-130.76 -111.34,-128.15"
         style="fill:#8c362b;fill-opacity:1;fill-rule:nonzero;stroke:none"
         id="path386" /><path
         d="m 5438.51,5227.5 c 20.53,17.69 27.38,38.96 15.28,47.52 -12.1,8.57 -38.56,1.17 -59.09,-16.52 -20.54,-17.69 -27.38,-38.96 -15.29,-47.53 12.1,-8.56 38.56,-1.16 59.1,16.53"
         style="fill:#f9a86f;fill-opacity:1;fill-rule:nonzero;stroke:none"
         id="path388" /><path
         d="m 5429.13,5228.88 c 13.47,11.59 17.95,25.55 10.02,31.16 -7.93,5.62 -25.27,0.78 -38.74,-10.82 -13.47,-11.6 -17.96,-25.55 -10.03,-31.17 7.94,-5.61 25.28,-0.77 38.75,10.83"
         style="fill:#f2634e;fill-opacity:1;fill-rule:nonzero;stroke:none"
         id="path390" /><path
         d="m 5410.33,5224.74 c 9.17,7.9 12.23,17.41 6.83,21.24 -5.41,3.82 -17.23,0.52 -26.4,-7.38 -9.18,-7.9 -12.23,-17.41 -6.83,-21.24 5.41,-3.82 17.22,-0.52 26.4,7.38"
         style="fill:#f9a86f;fill-opacity:1;fill-rule:nonzero;stroke:none"
         id="path392" /><path
         d="m 5244.14,4299.9 118.73,-46.98 c 0,0 -15.81,121.72 -39.52,131.21 -23.71,9.48 -79.21,-84.23 -79.21,-84.23"
         style="fill:#c6a773;fill-opacity:1;fill-rule:nonzero;stroke:none"
         id="path394" /><path
         d="m 5283.8,5351.83 c 3.63,13.06 13.18,21.31 21.32,18.43 8.13,-2.88 11.78,-15.79 8.15,-28.85 -3.63,-13.05 -13.17,-21.3 -21.32,-18.42 -8.13,2.87 -11.78,15.79 -8.15,28.84"
         style="fill:#50383d;fill-opacity:1;fill-rule:nonzero;stroke:none"
         id="path396" /><path
         d="m 5321.75,5428.14 45.21,-36.07 c 3.8,-3.03 4.95,-8.91 2.56,-13.12 l -9.01,-15.89 c -2.39,-4.22 -7.42,-5.17 -11.22,-2.14 l -45.22,36.07 c -3.81,3.03 -4.95,8.9 -2.56,13.12 l 9.02,15.89 c 2.39,4.21 7.41,5.18 11.22,2.14"
         style="fill:#8c362b;fill-opacity:1;fill-rule:nonzero;stroke:none"
         id="path398" /><path
         d="m 5196.13,5394.16 c 5.96,11.95 16.98,18.18 24.61,13.92 7.65,-4.27 9.01,-17.42 3.05,-29.37 -5.96,-11.95 -16.98,-18.18 -24.62,-13.91 -7.64,4.27 -8.99,17.41 -3.04,29.36"
         style="fill:#50383d;fill-opacity:1;fill-rule:nonzero;stroke:none"
         id="path400" /><path
         d="m 5211.49,5463.67 46.58,-8.02 c 3.91,-0.67 5.86,-4.6 4.34,-8.76 l -5.73,-15.73 c -1.51,-4.17 -5.92,-7 -9.83,-6.33 l -46.58,8.01 c -3.91,0.68 -5.87,4.6 -4.34,8.77 l 5.72,15.73 c 1.51,4.16 5.93,7 9.84,6.33"
         style="fill:#8c362b;fill-opacity:1;fill-rule:nonzero;stroke:none"
         id="path402" /><path
         d="m 5261.57,5358.38 c -36.64,-24.74 -56.38,-43.71 -51.75,-61.25 2.9,-10.97 13.41,-17.89 22.67,-22.06 l -0.3,-0.84 c 0,0 -32.42,7.33 -38.43,25.12 -5.95,17.59 20.49,35.11 67.81,59.03"
         style="fill:#f2634e;fill-opacity:1;fill-rule:nonzero;stroke:none"
         id="path404" /><path
         d="m 5162.65,5271.69 95.72,-46.65 c 0,0 -18.12,-39 -66.92,-28.41 -48.81,10.58 -28.8,75.06 -28.8,75.06"
         style="fill:#351f29;fill-opacity:1;fill-rule:nonzero;stroke:none"
         id="path406" /><path
         d="m 5166.27,5235.96 c -0.89,14.08 3.14,27.1 3.14,27.1 l 77.29,-37.66 c 0,0 -5.23,-11.1 -17.72,-18.33 l -62.71,28.89"
         style="fill:#fde9cf;fill-opacity:1;fill-rule:nonzero;stroke:none"
         id="path408" /><path
         d="m 5615.45,1637.58 c 0,0 -286.05,-77.28 -423.97,-3.54 L 5156,1463.27 c 154.44,-91.4 416.01,-53.05 520.71,-11.49 l -61.26,185.8"
         style="fill:#f7902d;fill-opacity:1;fill-rule:nonzero;stroke:none"
         id="path410" /><path
         d="m 5593.39,1717.49 c 0,0 -296.32,-1.09 -410.63,105.64 l -78.2,-155.89 c 125.73,-128.05 388.36,-158.28 500.24,-145.05 l -11.41,195.3"
         style="fill:#98a43b;fill-opacity:1;fill-rule:nonzero;stroke:none"
         id="path412" /><path
         d="m 5412.94,1614.44 c 14.25,25.01 -0.09,61.03 -32.01,80.46 -31.94,19.44 -69.36,14.91 -83.61,-10.1 -14.24,-25 0.08,-61.02 32.02,-80.45 31.92,-19.44 69.35,-14.92 83.6,10.09"
         style="fill:#b5bb3d;fill-opacity:1;fill-rule:nonzero;stroke:none"
         id="path414" /><path
         d="m 2631.6,1153.13 c 0,0 -248.38,161.59 -285.43,313.52 l -150.89,-87.47 c 34.92,-176.04 237.96,-345.33 338.76,-395.629 l 97.56,169.579"
         style="fill:#98a43b;fill-opacity:1;fill-rule:nonzero;stroke:none"
         id="path416" /><path
         d="m 2428.35,1157.07 c 23.87,16.08 27.01,54.73 7.01,86.31 -20,31.58 -55.55,44.14 -79.42,28.06 -23.86,-16.1 -27,-54.74 -7,-86.32 20,-31.58 55.55,-44.14 79.41,-28.05"
         style="fill:#b5bb3d;fill-opacity:1;fill-rule:nonzero;stroke:none"
         id="path418" /><path
         d="m 2924.46,1332.23 -166.83,50.89 C 2652.54,1237.64 2666.9,973.66 2698.75,865.621 l 190.6,44.07 c 0,0 -50.89,291.909 35.11,422.539"
         style="fill:#f7902d;fill-opacity:1;fill-rule:nonzero;stroke:none"
         id="path420" /><path
         d="M 5988.28,545.539 C 6165,290 6872.99,40 6872.99,40 l 266.23,228.27 -1150.94,277.269"
         style="fill:#f7902d;fill-opacity:1;fill-rule:nonzero;stroke:none"
         id="path422" /><path
         d="m 6818.05,1147.83 c 191.75,86.44 292.53,94.47 300.44,-192.17 3.08,-111.98 86.42,-267.422 86.42,-267.422 0,0 -140.67,-139.929 -228.25,-3.308 -87.58,136.609 -4.08,314.441 -62.6,384.15 -58.51,69.72 -96.01,78.75 -96.01,78.75"
         style="fill:#b49474;fill-opacity:1;fill-rule:nonzero;stroke:none"
         id="path424" /><path
         d="m 6906.51,1106.55 c 5.41,37.13 -9.19,71.16 -32.64,76.03 -23.44,4.85 -46.83,-21.3 -52.24,-58.43 -5.41,-37.12 9.2,-71.15 32.65,-76.02 23.44,-4.86 46.82,21.3 52.23,58.42"
         style="fill:#7b634d;fill-opacity:1;fill-rule:nonzero;stroke:none"
         id="path426" /><path
         d="m 5988.28,545.539 c 349.6,-252.707 739.01,-318.027 1150.94,-277.269 0,0 -225.35,857.97 -275.56,874.99 -375.71,127.36 -875.38,-597.721 -875.38,-597.721"
         style="fill:#ddc59e;fill-opacity:1;fill-rule:nonzero;stroke:none"
         id="path428" /><path
         d="m 6871.38,1085.76 c 54.9,-232.42 -164.17,-628.389 -415.55,-767.561 223.02,-60.48 451.02,-75.289 683.39,-49.929 0,0 -225.35,857.97 -275.56,874.99 -4.21,1.43 -8.44,2.62 -12.67,3.84 8.38,-19.1 15.24,-39.55 20.39,-61.34"
         style="fill:#cfb08a;fill-opacity:1;fill-rule:nonzero;stroke:none"
         id="path430" /><path
         d="m 6548.52,607.469 -31.83,10.261 22.15,48.129 c -29.09,9.93 -55.47,28.301 -67.67,45.922 l 26.82,28.008 c 12.92,-17.309 35.04,-34.848 63.33,-43.969 9.32,-3 18.45,-4.441 27.1,-4.441 24.65,0 45.28,11.652 54.54,31.75 12.05,26.211 -0.2,48.762 -31.04,75.109 -42.75,35.711 -64.5,67.891 -45.42,109.352 15.61,33.922 49.97,53.769 90.87,53.769 6.76,0 13.69,-0.539 20.75,-1.648 l 22.12,48.089 31.32,-10.109 -21.26,-46.203 c 29.91,-10.718 47.09,-25.039 58.03,-37.867 l -27.12,-27.371 c -7.96,9.148 -23.86,26.309 -56.2,36.742 -9.24,2.977 -17.68,4.278 -25.3,4.278 -24.46,0 -40.44,-13.45 -47.13,-27.981 -11.4,-24.777 1.6,-43.199 37.68,-74.527 42.84,-36.801 57.71,-70.051 38.2,-112.473 -15.08,-32.758 -50.39,-56.93 -96.07,-56.93 -6.8,0 -13.84,0.543 -21.07,1.661 l -22.8,-49.551"
         style="fill:#b29078;fill-opacity:1;fill-rule:nonzero;stroke:none"
         id="path432" /><path
         d="m 6822.32,1136.11 c 47.94,-157.579 -75.88,-422.028 -136.06,-482.758 0,0 109.93,64.308 164.31,267.968 34.09,127.71 -28.25,214.79 -28.25,214.79"
         style="fill:#cfb08a;fill-opacity:1;fill-rule:nonzero;stroke:none"
         id="path434" /><path
         d="m 7458.5,746.109 c -0.87,20.633 -34.87,35.942 -75.94,34.211 -41.07,-1.742 -73.65,-19.859 -72.78,-40.48 0.87,-20.621 34.86,-35.93 75.93,-34.211 41.07,1.742 73.66,19.863 72.79,40.48"
         style="fill:#f9b02d;fill-opacity:1;fill-rule:nonzero;stroke:none"
         id="path436" /><path
         d="m 8334.51,516.93 c -6.86,16.101 -41.4,16.781 -77.15,1.531 -35.74,-15.25 -59.15,-40.66 -52.27,-56.75 6.86,-16.09 41.4,-16.781 77.15,-1.531 35.73,15.25 59.14,40.66 52.27,56.75"
         style="fill:#f9b02d;fill-opacity:1;fill-rule:nonzero;stroke:none"
         id="path438" /><path
         d="m 7671.9,405.691 c -14.13,12.079 -49.88,-6.543 -79.84,-41.609 -29.97,-35.062 -42.8,-73.281 -28.67,-85.363 14.13,-12.078 49.88,6.551 79.85,41.613 29.96,35.066 42.81,73.277 28.66,85.359"
         style="fill:#f9b02d;fill-opacity:1;fill-rule:nonzero;stroke:none"
         id="path440" /><path
         d="m 8014.67,264.211 c -7.41,17.051 -47.72,15.961 -90.01,-2.441 -42.3,-18.391 -70.58,-47.129 -63.17,-64.18 7.43,-17.051 47.72,-15.961 90.02,2.43 42.3,18.402 70.57,47.14 63.16,64.191"
         style="fill:#f9b02d;fill-opacity:1;fill-rule:nonzero;stroke:none"
         id="path442" /><path
         d="m 7414.49,243.063 c -11.81,14.347 -50.26,2.238 -85.88,-27.063 -35.61,-29.301 -54.91,-64.699 -43.1,-79.059 11.81,-14.351 50.26,-2.242 85.88,27.059 35.61,29.301 54.91,64.699 43.1,79.063"
         style="fill:#f9b02d;fill-opacity:1;fill-rule:nonzero;stroke:none"
         id="path444" /><path
         d="m 7781.54,688.148 c -4.75,15.282 -45.73,16.102 -91.54,1.852 -45.81,-14.25 -79.09,-38.18 -74.34,-53.449 4.75,-15.27 45.74,-16.09 91.55,-1.84 45.8,14.25 79.08,38.18 74.33,53.437"
         style="fill:#f9b02d;fill-opacity:1;fill-rule:nonzero;stroke:none"
         id="path446" /><path
         d="m 7563.31,1125.16 c 5.04,15.17 -27.78,39.72 -73.31,54.84 -45.53,15.12 -86.52,15.07 -91.56,-0.11 -5.04,-15.17 27.79,-39.73 73.32,-54.85 45.53,-15.11 86.51,-15.06 91.55,0.12"
         style="fill:#f9b02d;fill-opacity:1;fill-rule:nonzero;stroke:none"
         id="path448" /><path
         d="m 7454.74,625.551 c -20.29,1.75 -40.58,-41.442 -45.34,-96.481 -4.77,-55.039 7.8,-101.07 28.08,-102.828 20.27,-1.754 40.58,41.449 45.34,96.469 4.77,55.039 -7.81,101.078 -28.08,102.84"
         style="fill:#f9b02d;fill-opacity:1;fill-rule:nonzero;stroke:none"
         id="path450" /></g></g></svg>
